<?xml version="1.0" encoding="utf-8"?>
<!-- Generator: Adobe Illustrator 16.0.0, SVG Export Plug-In . SVG Version: 6.00 Build 0)  -->
<!DOCTYPE svg PUBLIC "-//W3C//DTD SVG 1.1//EN" "http://www.w3.org/Graphics/SVG/1.1/DTD/svg11.dtd" [
	<!ENTITY ns_flows "http://ns.adobe.com/Flows/1.0/">
	<!ENTITY ns_extend "http://ns.adobe.com/Extensibility/1.0/">
	<!ENTITY ns_ai "http://ns.adobe.com/AdobeIllustrator/10.0/">
	<!ENTITY ns_graphs "http://ns.adobe.com/Graphs/1.0/">
	<!ENTITY ns_vars "http://ns.adobe.com/Variables/1.0/">
	<!ENTITY ns_imrep "http://ns.adobe.com/ImageReplacement/1.0/">
	<!ENTITY ns_sfw "http://ns.adobe.com/SaveForWeb/1.0/">
	<!ENTITY ns_custom "http://ns.adobe.com/GenericCustomNamespace/1.0/">
	<!ENTITY ns_adobe_xpath "http://ns.adobe.com/XPath/1.0/">
]>
<svg version="1.1" id="Layer_1" xmlns:x="&ns_extend;" xmlns:i="&ns_ai;" xmlns:graph="&ns_graphs;"
	 xmlns="http://www.w3.org/2000/svg" xmlns:xlink="http://www.w3.org/1999/xlink" xmlns:a="http://ns.adobe.com/AdobeSVGViewerExtensions/3.0/"
	 x="0px" y="0px" width="841.89px" height="595.279px" viewBox="0 0 841.89 595.279" enable-background="new 0 0 841.89 595.279"
	 xml:space="preserve">
<metadata>
	<sfw  xmlns="&ns_sfw;">
		<slices></slices>
		<sliceSourceBounds  height="597.392" width="841.89" bottomLeftOrigin="true" y="0" x="0"></sliceSourceBounds>
	</sfw>
</metadata>
<g>
	<defs>
		<rect id="SVGID_1_" width="841.89" height="595.279"/>
	</defs>
	<clipPath id="SVGID_2_">
		<use xlink:href="#SVGID_1_"  overflow="visible"/>
	</clipPath>
	<path clip-path="url(#SVGID_2_)" fill-rule="evenodd" clip-rule="evenodd" fill="#939598" d="M178.523,296.458
		c-0.144-0.031-0.404-0.06-0.646-0.133c-1.36-0.418-2.576-0.179-3.829,0.512c-0.666,0.365-1.693,0.599-2.343,0.343
		c-1.006-0.393-0.803-1.5-0.557-2.39c0.224-0.824,0.444-1.676,0.843-2.421c1.157-2.152,3.428-2.671,5.283-1.097
		c1.058,0.894,1.972,2.034,2.695,3.218C180.584,295.491,179.829,296.45,178.523,296.458"/>
	<path clip-path="url(#SVGID_2_)" fill-rule="evenodd" clip-rule="evenodd" fill="#939598" d="M185.521,304.966
		c0.359,0.155,1.223,0.255,1.542,0.723c0.97,1.435,1.952,2.935,2.502,4.552c0.481,1.418-0.732,2.304-2.048,1.561
		c-1.571-0.89-3.078-1.138-4.82-0.617c-0.528,0.157-1.483-0.114-1.797-0.53c-0.315-0.415-0.281-1.337-0.048-1.888
		C181.676,306.847,182.827,305.201,185.521,304.966"/>
	<path clip-path="url(#SVGID_2_)" fill-rule="evenodd" clip-rule="evenodd" fill="#939598" d="M174.035,285.458
		c0.008-0.131-0.016-0.401,0.055-0.642c0.275-0.934,0.631-1.891,1.81-1.858c1.1,0.03,1.446,0.938,1.69,1.84
		c0.066,0.243,0.058,0.51,0.058,0.766c0.009,1.415-0.779,2.612-1.74,2.655C174.855,288.27,174.029,287.106,174.035,285.458"/>
	<path clip-path="url(#SVGID_2_)" fill-rule="evenodd" clip-rule="evenodd" fill="#939598" d="M185.971,301.051
		c0.527-0.845,0.928-1.812,1.613-2.502c0.79-0.798,1.801-0.449,2.283,0.585c0.608,1.304-0.14,3.419-1.427,4.038
		C187.276,303.73,186.223,302.792,185.971,301.051"/>
	<path clip-path="url(#SVGID_2_)" fill-rule="evenodd" clip-rule="evenodd" fill="#939598" d="M185.516,300.404
		c-0.045,0.367,0.021,0.784-0.152,1.036c-0.373,0.534-0.823,1.302-1.331,1.379c-0.49,0.076-1.316-0.471-1.597-0.969
		c-0.373-0.666-0.623-1.608-0.45-2.317c0.177-0.718,0.829-1.673,1.459-1.845c0.986-0.272,1.55,0.705,1.874,1.593
		C185.45,299.636,185.457,300.04,185.516,300.404"/>
	<path clip-path="url(#SVGID_2_)" fill-rule="evenodd" clip-rule="evenodd" fill="#939598" d="M173.744,286.943
		c-0.551,0.776-0.844,1.604-1.375,1.812c-0.468,0.181-1.342-0.177-1.794-0.572c-0.917-0.803-1.313-1.918-0.993-3.161
		c0.312-1.198,1.359-1.669,2.248-0.85C172.599,284.88,173.06,285.921,173.744,286.943"/>
	<path clip-path="url(#SVGID_2_)" fill-rule="evenodd" clip-rule="evenodd" fill="#939598" d="M181.139,288.633
		c-0.002,1.467-0.945,2.745-2.007,2.728c-0.872-0.016-1.468-0.856-1.474-2.068c-0.003-1.452,0.911-2.792,1.93-2.828
		C180.438,286.434,181.141,287.417,181.139,288.633"/>
	<path clip-path="url(#SVGID_2_)" fill-rule="evenodd" clip-rule="evenodd" fill="#939598" d="M192.51,304.336
		c-0.098,1.628-1.398,3.121-2.523,2.968c-1.007-0.138-1.278-0.904-1.257-1.799c0.041-1.469,1.272-2.894,2.466-2.831
		C192.36,302.737,192.479,303.6,192.51,304.336"/>
	<path clip-path="url(#SVGID_2_)" fill-rule="evenodd" clip-rule="evenodd" fill="#939598" d="M171.258,291.746
		c-0.063,0.717-0.295,1.415-1.336,1.39c-1.261-0.034-2.578-1.527-2.56-2.94c0.011-0.878,0.4-1.504,1.369-1.523
		C169.957,288.645,171.269,290.197,171.258,291.746"/>
	<path clip-path="url(#SVGID_2_)" fill-rule="evenodd" clip-rule="evenodd" fill="#939598" d="M178.662,303.467
		c0.056-0.811,0.18-1.729,1.394-1.8c1.06-0.062,2.127,1.352,2.104,2.795c-0.016,0.943-0.201,1.874-1.394,1.952
		C179.711,306.484,178.67,305.034,178.662,303.467"/>
	<path clip-path="url(#SVGID_2_)" fill-rule="evenodd" clip-rule="evenodd" fill="#939598" d="M634.084,306.374
		c-1.072,1.022-2.502,1.25-3.57,0.479c-0.349-0.251-0.752-0.76-0.701-1.093c0.064-0.395,0.516-0.857,0.93-1.062
		c1.074-0.532,2.406-0.129,3.342,0.885V306.374z"/>
	<path clip-path="url(#SVGID_2_)" fill-rule="evenodd" clip-rule="evenodd" fill="#939598" d="M601.572,315.143
		c-0.146,0.247-0.312,0.933-0.765,1.221c-1.085,0.688-2.279,1.24-3.485,1.733c-0.31,0.126-1.003-0.056-1.192-0.311
		c-0.231-0.307-0.312-0.964-0.112-1.261c0.828-1.212,0.838-2.428,0.506-3.78c-0.311-1.258,0.572-1.856,1.872-1.39
		C600.312,312.044,601.598,313.443,601.572,315.143"/>
	<path clip-path="url(#SVGID_2_)" fill-rule="evenodd" clip-rule="evenodd" fill="#939598" d="M628.258,304.71
		c-0.211,0.567-0.234,1.044-0.502,1.285c-0.994,0.896-1.986,1.845-3.145,2.524c-0.957,0.561-1.972-0.214-1.613-1.204
		c0.5-1.395,0.349-2.613-0.358-3.89c-0.192-0.345-0.112-1.05,0.151-1.335c0.271-0.286,0.983-0.45,1.397-0.334
		c0.987,0.277,2.016,0.624,2.835,1.188C627.611,303.352,627.889,304.154,628.258,304.71"/>
	<path clip-path="url(#SVGID_2_)" fill-rule="evenodd" clip-rule="evenodd" fill="#939598" d="M605.514,318.697
		c-0.814-0.412-1.599-0.653-2.152-1.128c-0.85-0.727-0.565-1.73,0.576-1.896c0.754-0.11,1.628,0.133,2.362,0.419
		c0.633,0.243,1.087,0.907,0.72,1.541C606.766,318.068,606.108,318.297,605.514,318.697"/>
	<path clip-path="url(#SVGID_2_)" fill-rule="evenodd" clip-rule="evenodd" fill="#939598" d="M632.027,300.727
		c0.615,0.463,1.369,0.756,1.493,1.202c0.114,0.402-0.327,1.206-0.759,1.425c-0.683,0.345-1.587,0.541-2.354,0.451
		c-1.027-0.119-1.344-1.088-0.605-1.769C630.363,301.519,631.158,301.224,632.027,300.727"/>
	<path clip-path="url(#SVGID_2_)" fill-rule="evenodd" clip-rule="evenodd" fill="#939598" d="M605.331,315.06
		c-0.531-0.146-0.997-0.205-1.385-0.401c-0.817-0.411-0.896-1.171-0.238-1.79c0.661-0.626,2.04-0.847,2.948-0.471
		c1.073,0.443,1.229,1.457,0.256,2.074C606.441,314.769,605.836,314.879,605.331,315.06"/>
	<path clip-path="url(#SVGID_2_)" fill-rule="evenodd" clip-rule="evenodd" fill="#939598" d="M602.163,320.345
		c-1.234-0.016-2.448-0.941-2.444-1.841c0.003-0.88,0.652-1.074,1.42-1.064c1.172,0.018,2.381,0.977,2.338,1.86
		C603.439,320.118,602.773,320.256,602.163,320.345"/>
	<path clip-path="url(#SVGID_2_)" fill-rule="evenodd" clip-rule="evenodd" fill="#939598" d="M629.303,309.756
		c-1.219-0.016-2.342-0.788-2.254-1.615c0.094-0.873,0.833-1.068,1.599-1.087c1.176-0.031,2.311,0.777,2.317,1.587
		C630.974,309.311,630.293,309.768,629.303,309.756"/>
	<path clip-path="url(#SVGID_2_)" fill-rule="evenodd" clip-rule="evenodd" fill="#939598" d="M602.91,309.551
		c0.453,0.34,1.156,0.612,1.284,1.036c0.11,0.372-0.319,1.025-0.7,1.357c-0.739,0.64-2.016,0.703-2.613,0.17
		c-0.265-0.237-0.463-0.752-0.383-1.075C600.69,310.261,601.734,309.729,602.91,309.551"/>
	<path clip-path="url(#SVGID_2_)" fill-rule="evenodd" clip-rule="evenodd" fill="#939598" d="M628.51,299.222
		c0.725-0.016,1.248,0.255,1.317,0.975c0.083,0.879-1.263,1.92-2.429,1.895c-0.676-0.014-1.277-0.196-1.307-0.973
		C626.055,300.184,627.305,299.219,628.51,299.222"/>
	<path clip-path="url(#SVGID_2_)" fill-rule="evenodd" clip-rule="evenodd" fill="#939598" d="M444.119,388.87
		c0.045-0.14,0.099-0.395,0.195-0.63c0.547-1.313,0.426-2.545-0.142-3.86c-0.3-0.698-0.433-1.743-0.116-2.366
		c0.488-0.962,1.57-0.653,2.432-0.324c0.801,0.302,1.627,0.605,2.33,1.073c2.029,1.358,2.33,3.667,0.583,5.364
		c-0.991,0.966-2.212,1.766-3.461,2.372C444.885,391.014,444.002,390.169,444.119,388.87"/>
	<path clip-path="url(#SVGID_2_)" fill-rule="evenodd" clip-rule="evenodd" fill="#939598" d="M455.5,385.46
		c0.131,0.021,0.402,0.024,0.635,0.117c0.904,0.363,1.82,0.809,1.676,1.979c-0.138,1.094-1.072,1.349-1.994,1.506
		c-0.249,0.041-0.515,0.008-0.77-0.016c-1.408-0.128-2.523-1.026-2.475-1.986C452.624,386.007,453.86,385.296,455.5,385.46"/>
	<path clip-path="url(#SVGID_2_)" fill-rule="evenodd" clip-rule="evenodd" fill="#939598" d="M454.051,385.03
		c-0.72-0.625-1.515-0.995-1.672-1.545c-0.135-0.483,0.307-1.318,0.742-1.73c0.889-0.836,2.033-1.121,3.242-0.684
		c1.163,0.426,1.53,1.514,0.631,2.32C456.216,384.088,455.135,384.447,454.051,385.03"/>
	<path clip-path="url(#SVGID_2_)" fill-rule="evenodd" clip-rule="evenodd" fill="#939598" d="M451.658,392.227
		c-1.462-0.144-2.642-1.205-2.522-2.261c0.099-0.867,0.991-1.378,2.198-1.27c1.447,0.137,2.691,1.175,2.63,2.195
		C453.914,391.741,452.867,392.344,451.658,392.227"/>
	<path clip-path="url(#SVGID_2_)" fill-rule="evenodd" clip-rule="evenodd" fill="#939598" d="M449.51,382.092
		c-0.707-0.132-1.381-0.429-1.256-1.464c0.156-1.251,1.768-2.419,3.174-2.265c0.872,0.096,1.459,0.541,1.385,1.508
		C452.721,381.094,451.05,382.251,449.51,382.092"/>
</g>
<g>
	<defs>
		<rect id="SVGID_3_" width="841.89" height="595.279"/>
	</defs>
	<clipPath id="SVGID_4_">
		<use xlink:href="#SVGID_3_"  overflow="visible"/>
	</clipPath>
	
		<path clip-path="url(#SVGID_4_)" fill="none" stroke="#939598" stroke-width="1.25" stroke-miterlimit="10" stroke-dasharray="2,2" d="
		M282.01,189.571V99.437c0,0,0.954-20.509,18.813-20.509h55.478c0,0,12.208-5.104,12.692-13.3
		c0.466-8.197-4.239-15.909-12.226-16.409c-7.999-0.489-103.901,0-103.901,0s-24.911-1.02-25.38-24.593
		C227.021,1.072,242.54-1.488,250.062-1.488h199.964"/>
	
		<path clip-path="url(#SVGID_4_)" fill="none" stroke="#939598" stroke-width="1.25" stroke-miterlimit="10" stroke-dasharray="2,2" d="
		M578.11,256.49v-36.067c0,0-0.382-8.206-7.528-8.206h-22.199c0,0-4.884-2.041-5.078-5.322c-0.187-3.279,1.696-6.366,4.892-6.566
		c3.2-0.196,41.575,0,41.575,0s9.967-0.408,10.156-9.841c0.188-9.423-6.022-10.447-9.031-10.447h-80.018"/>
	<path clip-path="url(#SVGID_4_)" fill="#FFFFFF" d="M566.176,172.774c0-12.935-10.477-23.404-23.408-23.404
		c-12.934,0-23.406,10.469-23.406,23.404c0,12.929,10.473,23.406,23.406,23.406C555.699,196.18,566.176,185.703,566.176,172.774"/>
	<path clip-path="url(#SVGID_4_)" fill="none" stroke="#939598" stroke-width="1.5" stroke-miterlimit="10" d="M566.176,172.774
		c0-12.935-10.477-23.404-23.408-23.404c-12.934,0-23.406,10.469-23.406,23.404c0,12.929,10.473,23.406,23.406,23.406
		C555.699,196.18,566.176,185.703,566.176,172.774z"/>
</g>
<g>
	<defs>
		<path id="SVGID_5_" d="M341.99,264.485c0,56.937,46.154,103.082,103.084,103.082c56.92,0,103.077-46.146,103.077-103.082
			c0-56.934-46.157-103.081-103.077-103.081C388.144,161.404,341.99,207.551,341.99,264.485"/>
	</defs>
	<clipPath id="SVGID_6_">
		<use xlink:href="#SVGID_5_"  overflow="visible"/>
	</clipPath>
	<path clip-path="url(#SVGID_6_)" fill="#939598" d="M441.648,199.779h5.213v10.863h13.491v10.816h10.808v32.224h5.531v-10.579
		h32.24v10.731h10.721v2.316c0,36.256,0,72.514,0.025,108.771c0,0.704,0.02,1.407,0.051,2.118H368.797v-91.796h10.834v-10.579
		h32.288v10.595h5.491v-53.908h10.792v-10.769h13.446V199.779z M422.755,283.407c0,18.242,0,36.487-0.032,54.71
		c-0.011,1.435,0.361,1.857,1.813,1.844c13.06-0.058,26.129-0.058,39.204,0.014c1.656,0,2.058-0.447,2.058-2.09
		c-0.06-36.318-0.036-72.636,0-108.938c0.009-1.646-0.435-2.136-2.081-2.113c-12.953,0.055-25.912,0.02-38.865,0.02
		c-2.097,0-2.097,0-2.097,2.162V283.407z M471.311,340.196h37.561v21.586h2.902c2.697,0,2.707-0.009,2.707-2.621v-65.003
		c0-11.108-0.025-22.208,0.023-33.317c0.025-1.399-0.35-1.986-1.833-1.869c-1.507,0.151-3.036,0.162-4.56,0.162
		c-10.828-0.042-21.656-0.092-32.486-0.137h-4.314V340.196z M379.631,340.208h2.356c11.147,0,22.304-0.022,33.459,0.022
		c1.362,0,1.888-0.281,1.888-1.795c-0.054-18.661-0.029-37.331-0.045-55.997v-1.731c-2.384,0-4.595,0.019-6.806,0
		c-11.431-0.03-22.877-0.079-34.292-0.104c-2.164-0.011-2.164,0-2.164,2.115v57.136c0,6.759-0.011,13.51,0.034,20.244
		c0.024,0.567,0.492,1.539,0.824,1.581c1.529,0.169,3.103,0.077,4.746,0.077V340.208z M384.854,345.407
		c0,5.312-0.01,10.414,0.074,15.502c0,0.299,0.809,0.792,1.256,0.813c1.845,0.099,3.701,0,5.547,0.06
		c1.095,0.039,1.414-0.398,1.403-1.433c-0.074-2.459,0.088-4.904-0.074-7.346c-0.091-1.72,0.468-2.074,2.095-2.074
		c23.462,0.05,46.931,0.039,70.376,0.039c9.369,0,18.732,0.034,28.094-0.039c1.459,0,1.859,0.46,1.81,1.872
		c-0.116,2.503,0.026,5.01-0.045,7.513c-0.024,1.162,0.423,1.507,1.526,1.468c1.732-0.06,3.484-0.069,5.219,0
		c1.26,0.057,1.576-0.481,1.553-1.653c-0.021-4.308-0.07-8.598,0.037-12.892c0.037-1.572-0.566-1.852-1.976-1.852
		c-38.327,0.021-76.641,0.021-114.967,0.021H384.854z M503.677,253.657c0-1.587,0.056-3.102-0.06-4.586
		c-0.021-0.305-0.684-0.824-1.082-0.824c-6.513-0.045-13.023-0.045-19.535,0c-0.401,0-1.061,0.499-1.1,0.804
		c-0.099,1.504-0.041,3.012-0.041,4.606H503.677z M406.672,275.244c0-1.599,0.074-3.023-0.067-4.42
		c-0.025-0.352-0.687-0.964-1.059-0.976c-6.539-0.058-13.072-0.058-19.587-0.01c-0.378,0.01-1.054,0.513-1.08,0.819
		c-0.117,1.507-0.051,3.011-0.051,4.587H406.672z M433.501,221.303h21.472v-5.38h-21.472V221.303z M422.689,361.653h18.842v-5.336
		h-18.842V361.653z M398.373,356.243c0,1.414,0.071,2.657-0.035,3.886c-0.108,1.288,0.364,1.692,1.659,1.674
		c5.171-0.055,10.332-0.021,15.498-0.029c0.583,0,1.167-0.051,1.833-0.072v-5.458H398.373z M446.902,361.653h18.836v-5.336h-18.836
		V361.653z M471.056,356.243c0,1.647-0.072,3.13,0.059,4.564c0.031,0.362,0.716,0.928,1.09,0.94c5.618,0.048,11.217,0.048,16.812,0
		c0.367-0.013,1.032-0.515,1.056-0.824c0.119-1.526,0.072-3.083,0.072-4.681H471.056z"/>
</g>
<g>
	<defs>
		<path id="SVGID_7_" d="M427.955,333.015c0.012-3.86-0.05-3.86,3.879-3.86h26.594c2.115,0,2.115,0.026,2.109,2.215
			c-0.021,3.335-0.021,3.335-3.395,3.362h-12.871v0.014c-4.842,0-9.676-0.041-14.509,0.011c-0.037,0.001-0.072,0.001-0.108,0.001
			C428.398,334.757,427.955,334.352,427.955,333.015 M440.021,318.344c1.1-0.026,1.627,0.258,1.662,1.55
			c0.066,4.042,0.1,4.042-3.987,4.042h-2.922c-1.842,0-3.694-0.021-5.526,0c-0.896,0.024-1.211-0.317-1.281-1.22
			c-0.296-4.317-0.322-4.324,3.903-4.349c1.355,0,2.713,0.006,4.071,0.006C437.299,318.374,438.659,318.368,440.021,318.344
			 M458.945,318.344c1.201-0.036,1.571,0.449,1.598,1.62c0.094,3.972,0.141,3.972-3.877,3.972h-3.08
			c-1.802,0-3.597-0.033-5.385,0.024c-0.967,0.025-1.369-0.331-1.339-1.318c0.073-4.421-0.47-4.344,2.169-4.266
			c0.473,0.014,1.049,0.028,1.75,0.016c1.392-0.037,2.781-0.031,4.169-0.026c0.499,0.002,0.997,0.004,1.495,0.004
			C457.28,318.37,458.114,318.364,458.945,318.344 M427.967,311.925c-0.39-4.366-0.361-4.375,3.912-4.351
			c2.802,0.023,5.576,0.049,8.343,0c1.04-0.024,1.462,0.347,1.446,1.41c-0.105,4.266,0.415,4.218-2.037,4.168
			c-0.494-0.01-1.109-0.019-1.875,0.006c-1.019,0.034-2.041,0.01-3.1,0.01v-0.023c-1.787,0-3.601-0.021-5.385,0.014
			c-0.038,0.001-0.076,0.002-0.112,0.002C428.336,313.161,428.044,312.789,427.967,311.925 M450.829,307.598
			c1.487-0.043,2.975-0.032,4.461-0.021c1.24,0.01,2.477,0.021,3.712-0.003c1.145-0.024,1.541,0.401,1.541,1.513
			c-0.023,4.215,0.306,4.146-2.119,4.08c-0.467-0.014-1.035-0.025-1.727-0.009c-1.022,0.034-2.08,0-3.111,0v-0.014
			c-1.788,0-3.574-0.021-5.385,0.014c-0.967,0.034-1.369-0.342-1.356-1.331c0.1-4.377-0.46-4.308,2.155-4.239
			c0.324,0.009,0.697,0.018,1.126,0.018C450.345,307.606,450.579,307.603,450.829,307.598 M440.137,296.779
			c1.101-0.023,1.512,0.319,1.531,1.487c0.082,4.086,0.115,4.086-3.938,4.1c-1.028,0.011-2.079,0-3.083,0v0.011
			c-1.807,0-3.592-0.024-5.376,0.014c-0.919,0.01-1.234-0.366-1.305-1.26c-0.332-4.341-0.341-4.341,4.02-4.341
			c1.637,0,3.276,0.014,4.917,0.014C437.982,296.804,439.061,296.798,440.137,296.779 M448.091,302.319
			c-2.46-0.362-0.833-2.437-1.188-3.682c-0.256-0.824-0.256-1.881,1.225-1.869c3.702,0.049,7.384,0.021,11.076,0.039
			c0.047,0,0.118-0.017,0.163,0c2.255,0.515,0.871,2.29,1.105,3.457c0.165,0.797,0.517,2.113-1.15,2.103
			c-1.894-0.014-3.811,0-5.689,0v0.011c-1.129,0-2.271,0.078-3.403,0.078C449.509,302.455,448.794,302.422,448.091,302.319
			 M440.16,285.992c1.102-0.03,1.523,0.372,1.508,1.501c-0.065,4.199,0.463,4.149-2.22,4.097c-0.474-0.009-1.044-0.018-1.736-0.004
			c-0.975,0.011-1.937,0-2.914,0c-1.849,0-3.718-0.025-5.526,0c-0.909,0.025-1.355-0.306-1.305-1.225c0.012-0.115,0-0.21,0-0.327
			c-0.08-3.999-0.08-3.999,3.892-4.022c0.907-0.002,1.819,0,2.732,0.002c0.643,0.001,1.284,0.002,1.928,0.002
			C437.73,286.016,438.944,286.012,440.16,285.992 M458.791,285.992c1.184-0.049,1.752,0.257,1.752,1.597
			c0.056,3.997,0.106,3.997-3.877,3.997h-3.109c-1.785,0-3.567-0.034-5.355,0.011c-0.988,0.021-1.369-0.343-1.356-1.329
			c0.1-4.394-0.439-4.328,2.138-4.262c0.491,0.012,1.097,0.025,1.842,0.006c1.306-0.024,2.615-0.016,3.925-0.008
			c0.639,0.004,1.277,0.008,1.916,0.008C457.373,286.012,458.082,286.007,458.791,285.992 M427.967,279.25
			c0.049-4.237-0.329-4.137,2.336-4.036c0.434,0.016,0.946,0.032,1.556,0.03c4.011-0.022,8.029-0.019,12.05-0.017
			c4.837,0.004,9.679,0.008,14.52-0.033c1.6-0.02,2.222,0.355,2.164,2.058c-0.144,3.653,0.224,3.602-2.231,3.551
			c-0.384-0.007-0.835-0.015-1.368-0.01c-4.26,0.057-8.484,0.021-12.721,0.021v-0.009c-4.882,0-9.783-0.039-14.657,0.009
			c-0.038,0-0.076,0.001-0.113,0.001C428.394,280.815,427.956,280.443,427.967,279.25 M440.16,264.43
			c1.124-0.04,1.488,0.348,1.508,1.478c0.082,4.094,0.115,4.094-3.956,4.094c-0.975,0.022-1.954,0-2.938,0v0.022
			c-1.72,0-3.474-0.061-5.212,0.02c-1.21,0.051-1.564-0.445-1.596-1.621c-0.105-3.97-0.132-3.97,3.892-3.97
			c1.277,0,2.566,0.004,3.857,0.004C437.2,264.457,438.686,264.452,440.16,264.43 M446.862,268.684
			c0.052-4.417-0.493-4.332,2.144-4.249c0.479,0.016,1.063,0.03,1.775,0.018c1.352-0.025,2.703-0.018,4.05-0.01
			c1.375,0.008,2.747,0.015,4.114-0.013c1.174-0.04,1.646,0.311,1.598,1.549c-0.099,4.14,0.355,4.084-2.182,4.028
			c-0.459-0.01-1.019-0.02-1.695-0.005c-1.04,0.034-2.074,0.022-3.109,0.022c-1.785,0-3.567-0.022-5.355,0.012
			c-0.01,0-0.021,0-0.03,0C447.205,270.036,446.832,269.64,446.862,268.684 M440.392,253.637c0.893,0,1.257,0.35,1.257,1.244
			c-0.038,4.527,0.486,4.439-2.26,4.352c-0.477-0.016-1.054-0.031-1.75-0.022c-1.187,0.019-2.371,0.016-3.554,0.013
			c-1.477-0.005-2.952-0.009-4.429,0.029c-1.233,0.023-1.701-0.387-1.701-1.689c-0.023-3.882-0.05-3.882,3.834-3.907
			c1.008-0.02,2.037,0,3.094,0c0.961,0,1.933,0.007,2.905,0.007C438.657,253.664,439.527,253.658,440.392,253.637 M459.06,253.637
			c0.987-0.029,1.483,0.268,1.478,1.361c-0.046,4.382,0.438,4.307-2.167,4.233c-0.485-0.015-1.077-0.028-1.799-0.014
			c-0.945,0.015-1.86,0-2.778,0c-1.848,0-3.713-0.034-5.529,0.015c-1.066,0.03-1.401-0.401-1.432-1.438
			c-0.09-4.112-0.139-4.137,3.918-4.137c1.155-0.008,2.314-0.004,3.475-0.002c0.588,0.002,1.177,0.003,1.766,0.003
			C457.013,253.658,458.037,253.654,459.06,253.637 M453.757,242.864h5.073c0.327,0,0.728-0.09,0.961,0.074
			c1.576,1.126,0.457,2.773,0.726,4.161c0.133,0.822-0.234,1.339-1.195,1.339c-1.219-0.007-2.439,0.013-3.659,0.032
			c-2.538,0.041-5.077,0.081-7.602-0.123c-2.448-0.189-0.803-2.425-1.158-3.697c-0.256-0.878-0.16-1.853,1.309-1.795
			c0.663,0.03,1.326,0.039,1.991,0.039C451.386,242.894,452.572,242.864,453.757,242.864 M440.086,242.84
			c1.25-0.018,1.623,0.439,1.598,1.63c-0.136,4.01,0.422,3.983-2.14,3.956c-0.484-0.004-1.08-0.01-1.813,0.012
			c-0.938,0.051-1.857,0.009-2.791,0.009v-0.009c-1.838,0-3.682-0.024-5.548,0c-0.924,0.022-1.345-0.304-1.425-1.291
			c-0.332-4.307-0.361-4.292,3.973-4.283c1.423,0.013,2.849,0.029,4.271,0.029C437.505,242.893,438.797,242.88,440.086,242.84
			 M440.302,232.075c0.982-0.022,1.382,0.32,1.347,1.318c-0.09,4.394,0.466,4.324-2.136,4.254c-0.479-0.014-1.064-0.026-1.782-0.012
			c-1.357,0.028-2.716,0.023-4.068,0.017c-1.361-0.005-2.719-0.01-4.063,0.017c-1.236,0.047-1.62-0.42-1.632-1.596
			c-0.105-3.986-0.132-3.986,3.892-3.986h2.916c1.101,0,2.201,0.012,3.302,0.012C438.818,232.099,439.561,232.093,440.302,232.075
			 M458.92,232.064c1.17-0.03,1.672,0.293,1.623,1.537c-0.081,4.131,0.363,4.087-2.198,4.043c-0.457-0.008-1.01-0.015-1.679,0
			c-0.991,0.025-1.955,0-2.939,0v0.015c-1.848,0-3.695-0.024-5.525,0.01c-0.967,0.011-1.299-0.375-1.356-1.339
			c-0.208-4.243-0.22-4.243,3.937-4.243c1.613,0,3.217,0.02,4.817,0.02C456.707,232.107,457.812,232.097,458.92,232.064
			 M463.717,226.832c-12.953,0.055-25.912,0.021-38.866,0.021c-2.096,0-2.096,0-2.096,2.162v54.392c0,18.243,0,36.487-0.032,54.71
			c-0.011,1.435,0.361,1.857,1.813,1.844c13.059-0.058,26.129-0.058,39.204,0.014c1.656,0,2.058-0.447,2.058-2.09
			c-0.06-36.318-0.036-72.635,0-108.938c0.008-1.611-0.416-2.114-1.976-2.114C463.788,226.832,463.753,226.832,463.717,226.832"/>
	</defs>
	<clipPath id="SVGID_8_">
		<use xlink:href="#SVGID_7_"  overflow="visible"/>
	</clipPath>
	
		<linearGradient id="SVGID_9_" gradientUnits="userSpaceOnUse" x1="0" y1="595.2788" x2="1.0005" y2="595.2788" gradientTransform="matrix(43.0752 0 0 -43.0752 422.7188 25925.1543)">
		<stop  offset="0" style="stop-color:#BCE1C9"/>
		<stop  offset="1" style="stop-color:#96D2B1"/>
		<a:midPointStop  offset="0" style="stop-color:#BCE1C9"/>
		<a:midPointStop  offset="0.5122" style="stop-color:#BCE1C9"/>
		<a:midPointStop  offset="1" style="stop-color:#96D2B1"/>
	</linearGradient>
	<rect x="422.712" y="226.832" clip-path="url(#SVGID_8_)" fill="url(#SVGID_9_)" width="43.094" height="113.142"/>
</g>
<g>
	<defs>
		<path id="SVGID_10_" d="M341.99,264.485c0,56.937,46.154,103.082,103.084,103.082c56.92,0,103.077-46.146,103.077-103.082
			c0-56.934-46.157-103.081-103.077-103.081C388.144,161.404,341.99,207.551,341.99,264.485"/>
	</defs>
	<clipPath id="SVGID_11_">
		<use xlink:href="#SVGID_10_"  overflow="visible"/>
	</clipPath>
	<path clip-path="url(#SVGID_11_)" fill-rule="evenodd" clip-rule="evenodd" fill="#FFFFFF" d="M471.311,340.196v-81.199h4.314
		c10.83,0.045,21.658,0.095,32.486,0.136c1.523,0,3.053-0.01,4.56-0.162c1.483-0.116,1.858,0.471,1.833,1.87
		c-0.049,11.109-0.023,22.209-0.023,33.317v65.003c0,2.612-0.01,2.621-2.707,2.621h-2.902v-21.586H471.311z M508.77,307.912h-32.024
		v4.997h32.024V307.912z M476.707,291.302h13.129v-5.008h-13.129V291.302z M508.789,286.285h-13.146v5.026h13.146V286.285z
		 M476.721,280.482h13.115v-5.002h-13.115V280.482z M508.789,275.48h-13.118v4.961h13.118V275.48z M489.873,297.135h-13.104v4.97
		h13.104V297.135z M495.645,302.075h13.171v-4.913h-13.171V302.075z M476.744,269.679h13.119v-4.947h-13.119V269.679z
		 M476.744,323.716h13.119v-4.998h-13.119V323.716z M508.77,318.764h-13.099v4.95h13.099V318.764z M476.751,334.504h13.112v-4.991
		h-13.112V334.504z M508.789,329.557h-13.072v4.916h13.072V329.557z M495.671,269.698h13.099v-5.023h-13.099V269.698z"/>
	<path clip-path="url(#SVGID_11_)" fill-rule="evenodd" clip-rule="evenodd" fill="#FFFFFF" d="M379.631,340.208v21.549
		c-1.644,0-3.217,0.092-4.746-0.077c-0.332-0.043-0.8-1.014-0.824-1.581c-0.045-6.734-0.035-13.485-0.035-20.244v-57.137
		c0-2.114,0-2.126,2.164-2.114c11.415,0.025,22.862,0.073,34.292,0.104c2.211,0.019,4.422,0,6.807,0v1.731
		c0.016,18.666-0.01,37.336,0.045,55.997c0,1.514-0.526,1.795-1.889,1.795c-11.154-0.045-22.311-0.022-33.459-0.022H379.631z
		 M379.729,302.075h32.025v-4.987h-32.025V302.075z M392.857,286.33h-13.168v4.973h13.168V286.33z M411.777,286.295h-13.143v5.017
		h13.143V286.295z M379.771,323.677h13.033v-4.981h-13.033V323.677z M398.658,323.716h13.096v-4.998h-13.096V323.716z
		 M392.857,329.537H379.74v4.957h13.117V329.537z M398.635,334.494h13.105v-4.957h-13.105V334.494z M411.728,307.951h-13.036v4.995
		h13.036V307.951z M379.74,312.936h13.085v-5.016H379.74V312.936z"/>
</g>
<g>
	<defs>
		<path id="SVGID_12_" d="M386.781,345.407h-1.928c0,0.923,0,1.84,0,2.752c2.655,1.914,5.4,3.702,8.236,5.361
			c-0.008-0.172-0.018-0.344-0.029-0.517c-0.091-1.72,0.468-2.075,2.094-2.075c23.462,0.051,46.932,0.041,70.377,0.041
			c9.369,0,18.732,0.033,28.094-0.041c1.459,0,1.859,0.462,1.81,1.874c-0.025,0.556-0.038,1.112-0.045,1.67
			c2.854-1.6,5.618-3.326,8.295-5.181c0.01-0.685,0.023-1.37,0.04-2.055c0.037-1.572-0.565-1.851-1.976-1.851
			C463.422,345.407,425.109,345.407,386.781,345.407"/>
	</defs>
	<clipPath id="SVGID_13_">
		<use xlink:href="#SVGID_12_"  overflow="visible"/>
	</clipPath>
	
		<linearGradient id="SVGID_14_" gradientUnits="userSpaceOnUse" x1="4.882812e-04" y1="595.3101" x2="1.001" y2="595.3101" gradientTransform="matrix(118.874 0 0 -118.874 384.875 71116.7812)">
		<stop  offset="0" style="stop-color:#DBE12B"/>
		<stop  offset="0.2898" style="stop-color:#DEE44D"/>
		<stop  offset="0.7656" style="stop-color:#E3E87F"/>
		<stop  offset="1" style="stop-color:#E5EA93"/>
		<a:midPointStop  offset="0" style="stop-color:#DBE12B"/>
		<a:midPointStop  offset="0.453" style="stop-color:#DBE12B"/>
		<a:midPointStop  offset="1" style="stop-color:#E5EA93"/>
	</linearGradient>
	<rect x="384.853" y="345.386" clip-path="url(#SVGID_13_)" fill="url(#SVGID_14_)" width="118.909" height="9.086"/>
</g>
<g>
	<defs>
		<path id="SVGID_15_" d="M341.99,264.485c0,56.937,46.154,103.082,103.084,103.082c56.92,0,103.077-46.146,103.077-103.082
			c0-56.934-46.157-103.081-103.077-103.081C388.144,161.404,341.99,207.551,341.99,264.485"/>
	</defs>
	<clipPath id="SVGID_16_">
		<use xlink:href="#SVGID_15_"  overflow="visible"/>
	</clipPath>
	<path clip-path="url(#SVGID_16_)" fill-rule="evenodd" clip-rule="evenodd" fill="#FFFFFF" d="M503.677,253.657h-21.817
		c0-1.594-0.058-3.103,0.041-4.606c0.039-0.305,0.698-0.804,1.1-0.804c6.512-0.045,13.022-0.045,19.535,0
		c0.398,0,1.061,0.519,1.082,0.824C503.732,250.554,503.677,252.07,503.677,253.657"/>
	<path clip-path="url(#SVGID_16_)" fill-rule="evenodd" clip-rule="evenodd" fill="#FFFFFF" d="M406.672,275.244h-21.844
		c0-1.576-0.066-3.08,0.051-4.587c0.025-0.306,0.702-0.809,1.08-0.819c6.515-0.048,13.048-0.048,19.587,0.01
		c0.372,0.012,1.034,0.625,1.059,0.976C406.746,272.221,406.672,273.645,406.672,275.244"/>
	
		<rect x="433.501" y="215.923" clip-path="url(#SVGID_16_)" fill-rule="evenodd" clip-rule="evenodd" fill="#FFFFFF" width="21.472" height="5.38"/>
</g>
<g>
	<defs>
		<rect id="SVGID_17_" x="422.689" y="356.317" width="18.842" height="5.336"/>
	</defs>
	<clipPath id="SVGID_18_">
		<use xlink:href="#SVGID_17_"  overflow="visible"/>
	</clipPath>
	
		<linearGradient id="SVGID_19_" gradientUnits="userSpaceOnUse" x1="0" y1="595.2788" x2="1" y2="595.2788" gradientTransform="matrix(18.8418 0 0 -18.8418 422.6875 11575.1035)">
		<stop  offset="0" style="stop-color:#DBE12B"/>
		<stop  offset="0.2898" style="stop-color:#DEE44D"/>
		<stop  offset="0.7656" style="stop-color:#E3E87F"/>
		<stop  offset="1" style="stop-color:#E5EA93"/>
		<a:midPointStop  offset="0" style="stop-color:#DBE12B"/>
		<a:midPointStop  offset="0.453" style="stop-color:#DBE12B"/>
		<a:midPointStop  offset="1" style="stop-color:#E5EA93"/>
	</linearGradient>
	<rect x="422.689" y="356.317" clip-path="url(#SVGID_18_)" fill="url(#SVGID_19_)" width="18.842" height="5.336"/>
</g>
<g>
	<defs>
		<path id="SVGID_20_" d="M398.373,356.243c0,0.055,0,0.11,0.001,0.165c4.034,2.053,8.223,3.849,12.542,5.366
			c1.526,0.001,3.052,0.002,4.579-0.001c0.583,0,1.167-0.051,1.833-0.072v-5.458H398.373z"/>
	</defs>
	<clipPath id="SVGID_21_">
		<use xlink:href="#SVGID_20_"  overflow="visible"/>
	</clipPath>
	
		<linearGradient id="SVGID_22_" gradientUnits="userSpaceOnUse" x1="0" y1="595.2808" x2="1" y2="595.2808" gradientTransform="matrix(19.0049 0 0 -19.0049 398.3281 11672.2324)">
		<stop  offset="0" style="stop-color:#DBE12B"/>
		<stop  offset="0.2898" style="stop-color:#DEE44D"/>
		<stop  offset="0.7656" style="stop-color:#E3E87F"/>
		<stop  offset="1" style="stop-color:#E5EA93"/>
		<a:midPointStop  offset="0" style="stop-color:#DBE12B"/>
		<a:midPointStop  offset="0.453" style="stop-color:#DBE12B"/>
		<a:midPointStop  offset="1" style="stop-color:#E5EA93"/>
	</linearGradient>
	<rect x="398.373" y="356.243" clip-path="url(#SVGID_21_)" fill="url(#SVGID_22_)" width="18.955" height="5.533"/>
</g>
<g>
	<defs>
		<rect id="SVGID_23_" x="446.902" y="356.317" width="18.836" height="5.336"/>
	</defs>
	<clipPath id="SVGID_24_">
		<use xlink:href="#SVGID_23_"  overflow="visible"/>
	</clipPath>
	
		<linearGradient id="SVGID_25_" gradientUnits="userSpaceOnUse" x1="0" y1="595.2788" x2="1" y2="595.2788" gradientTransform="matrix(18.8359 0 0 -18.8359 446.9062 11571.6172)">
		<stop  offset="0" style="stop-color:#DBE12B"/>
		<stop  offset="0.2898" style="stop-color:#DEE44D"/>
		<stop  offset="0.7656" style="stop-color:#E3E87F"/>
		<stop  offset="1" style="stop-color:#E5EA93"/>
		<a:midPointStop  offset="0" style="stop-color:#DBE12B"/>
		<a:midPointStop  offset="0.453" style="stop-color:#DBE12B"/>
		<a:midPointStop  offset="1" style="stop-color:#E5EA93"/>
	</linearGradient>
	<rect x="446.902" y="356.317" clip-path="url(#SVGID_24_)" fill="url(#SVGID_25_)" width="18.836" height="5.336"/>
</g>
<g>
	<defs>
		<path id="SVGID_26_" d="M471.056,356.243c0,1.647-0.072,3.13,0.059,4.564c0.032,0.361,0.716,0.928,1.09,0.94
			c2.336,0.021,4.668,0.031,6.998,0.035c3.751-1.315,7.408-2.845,10.947-4.569c-0.003-0.321-0.005-0.646-0.005-0.971H471.056z"/>
	</defs>
	<clipPath id="SVGID_27_">
		<use xlink:href="#SVGID_26_"  overflow="visible"/>
	</clipPath>
	
		<linearGradient id="SVGID_28_" gradientUnits="userSpaceOnUse" x1="0" y1="595.2788" x2="1" y2="595.2788" gradientTransform="matrix(19.1172 0 0 -19.1172 471.0312 11739.0703)">
		<stop  offset="0" style="stop-color:#DBE12B"/>
		<stop  offset="0.2898" style="stop-color:#DEE44D"/>
		<stop  offset="0.7656" style="stop-color:#E3E87F"/>
		<stop  offset="1" style="stop-color:#E5EA93"/>
		<a:midPointStop  offset="0" style="stop-color:#DBE12B"/>
		<a:midPointStop  offset="0.453" style="stop-color:#DBE12B"/>
		<a:midPointStop  offset="1" style="stop-color:#E5EA93"/>
	</linearGradient>
	<rect x="470.983" y="356.243" clip-path="url(#SVGID_27_)" fill="url(#SVGID_28_)" width="19.166" height="5.54"/>
</g>
<g>
	<defs>
		<path id="SVGID_29_" d="M341.99,264.485c0,56.937,46.154,103.082,103.084,103.082c56.92,0,103.077-46.146,103.077-103.082
			c0-56.934-46.157-103.081-103.077-103.081C388.144,161.404,341.99,207.551,341.99,264.485"/>
	</defs>
	<clipPath id="SVGID_30_">
		<use xlink:href="#SVGID_29_"  overflow="visible"/>
	</clipPath>
	<path clip-path="url(#SVGID_30_)" fill-rule="evenodd" clip-rule="evenodd" fill="#939598" d="M444.271,280.804
		c-4.882,0-9.784-0.038-14.657,0.009c-1.19,0.025-1.659-0.331-1.647-1.563c0.057-4.925-0.463-3.991,3.891-4.007
		c8.838-0.049,17.706,0.025,26.57-0.049c1.6-0.02,2.221,0.354,2.164,2.058c-0.165,4.223,0.352,3.495-3.6,3.54
		c-4.26,0.057-8.484,0.021-12.721,0.021V280.804z"/>
	<path clip-path="url(#SVGID_30_)" fill-rule="evenodd" clip-rule="evenodd" fill="#939598" d="M444.271,334.746
		c-4.842,0-9.676-0.041-14.508,0.011c-1.34,0.023-1.809-0.367-1.809-1.742c0.012-3.859-0.05-3.859,3.879-3.859h26.594
		c2.115,0,2.115,0.026,2.109,2.215c-0.021,3.335-0.021,3.335-3.394,3.362h-12.872V334.746z"/>
	<path clip-path="url(#SVGID_30_)" fill-rule="evenodd" clip-rule="evenodd" fill="#939598" d="M434.798,291.585
		c-1.849,0-3.718-0.024-5.526,0c-0.909,0.025-1.355-0.306-1.305-1.225c0.012-0.115,0-0.21,0-0.327
		c-0.08-3.998-0.08-3.998,3.891-4.021c2.749-0.007,5.521,0.023,8.303-0.021c1.102-0.03,1.523,0.372,1.508,1.501
		c-0.076,4.938,0.668,3.998-3.956,4.093C436.736,291.598,435.776,291.585,434.798,291.585"/>
	<path clip-path="url(#SVGID_30_)" fill-rule="evenodd" clip-rule="evenodd" fill="#939598" d="M453.557,291.585
		c-1.785,0-3.567-0.033-5.355,0.012c-0.988,0.02-1.369-0.343-1.355-1.329c0.117-5.233-0.668-4.141,3.979-4.256
		c2.648-0.051,5.305,0.034,7.967-0.021c1.184-0.049,1.752,0.257,1.752,1.597c0.057,3.997,0.105,3.997-3.877,3.997H453.557z"/>
	<path clip-path="url(#SVGID_30_)" fill-rule="evenodd" clip-rule="evenodd" fill="#939598" d="M453.793,259.217
		c-1.848,0-3.713-0.034-5.529,0.014c-1.066,0.031-1.402-0.401-1.432-1.437c-0.09-4.112-0.14-4.138,3.918-4.138
		c2.762-0.019,5.538,0.026,8.311-0.019c0.986-0.029,1.482,0.268,1.477,1.36c-0.054,5.198,0.639,4.125-3.966,4.22
		C455.626,259.231,454.711,259.217,453.793,259.217"/>
	<path clip-path="url(#SVGID_30_)" fill-rule="evenodd" clip-rule="evenodd" fill="#939598" d="M434.646,302.376
		c-1.805,0-3.591-0.024-5.375,0.014c-0.918,0.01-1.234-0.366-1.305-1.259c-0.332-4.341-0.342-4.341,4.019-4.341
		c2.716,0,5.44,0.036,8.151-0.012c1.1-0.022,1.512,0.32,1.531,1.487c0.082,4.086,0.115,4.086-3.938,4.1
		c-1.029,0.011-2.079,0-3.084,0V302.376z"/>
	<path clip-path="url(#SVGID_30_)" fill-rule="evenodd" clip-rule="evenodd" fill="#939598" d="M453.633,302.376
		c-1.849,0-3.736,0.21-5.542-0.058c-2.459-0.361-0.833-2.437-1.188-3.682c-0.257-0.824-0.257-1.881,1.225-1.869
		c3.702,0.048,7.384,0.022,11.076,0.038c0.047,0,0.117-0.016,0.163,0c2.255,0.515,0.87,2.29,1.106,3.456
		c0.164,0.798,0.516,2.114-1.152,2.104c-1.893-0.014-3.81,0-5.688,0V302.376z"/>
	<path clip-path="url(#SVGID_30_)" fill-rule="evenodd" clip-rule="evenodd" fill="#939598" d="M434.773,232.086
		c1.847,0,3.689,0.033,5.528-0.012c0.981-0.021,1.382,0.321,1.347,1.318c-0.105,5.204,0.693,4.146-3.918,4.243
		c-2.723,0.055-5.45-0.023-8.132,0.034c-1.236,0.047-1.62-0.421-1.632-1.597c-0.105-3.986-0.132-3.986,3.891-3.986H434.773z"/>
	<path clip-path="url(#SVGID_30_)" fill-rule="evenodd" clip-rule="evenodd" fill="#939598" d="M453.727,237.66
		c-1.848,0-3.695-0.024-5.525,0.01c-0.967,0.011-1.299-0.376-1.355-1.34c-0.209-4.243-0.221-4.243,3.936-4.243
		c2.73,0,5.434,0.058,8.139-0.023c1.17-0.029,1.672,0.293,1.623,1.536c-0.094,4.869,0.539,3.939-3.877,4.044
		c-0.99,0.026-1.955,0-2.939,0V237.66z"/>
	<path clip-path="url(#SVGID_30_)" fill-rule="evenodd" clip-rule="evenodd" fill="#939598" d="M434.939,248.438
		c-1.838,0-3.682-0.023-5.548,0c-0.923,0.021-1.345-0.305-1.425-1.291c-0.332-4.308-0.361-4.292,3.972-4.283
		c2.718,0.025,5.44,0.06,8.147-0.025c1.25-0.017,1.624,0.44,1.598,1.63c-0.161,4.77,0.658,3.829-3.953,3.969
		c-0.937,0.051-1.857,0.009-2.791,0.009V248.438z"/>
	<path clip-path="url(#SVGID_30_)" fill-rule="evenodd" clip-rule="evenodd" fill="#939598" d="M453.757,242.864h5.073
		c0.326,0,0.728-0.09,0.961,0.074c1.576,1.126,0.457,2.773,0.726,4.16c0.132,0.824-0.235,1.34-1.196,1.34
		c-3.752-0.023-7.522,0.211-11.259-0.091c-2.451-0.189-0.804-2.424-1.159-3.697c-0.257-0.878-0.16-1.853,1.309-1.795
		C450.055,242.938,451.908,242.864,453.757,242.864"/>
	<path clip-path="url(#SVGID_30_)" fill-rule="evenodd" clip-rule="evenodd" fill="#939598" d="M434.883,253.657
		c1.818,0,3.676,0.025,5.509-0.02c0.892,0,1.257,0.35,1.257,1.244c-0.045,5.314,0.688,4.269-4.009,4.33
		c-2.668,0.043-5.323-0.028-7.983,0.043c-1.232,0.022-1.701-0.388-1.701-1.69c-0.023-3.882-0.051-3.882,3.834-3.907
		C432.797,253.637,433.826,253.657,434.883,253.657"/>
	<path clip-path="url(#SVGID_30_)" fill-rule="evenodd" clip-rule="evenodd" fill="#939598" d="M434.773,270.024
		c-1.719,0-3.473-0.061-5.211,0.021c-1.209,0.049-1.564-0.447-1.596-1.622c-0.105-3.969-0.132-3.969,3.891-3.969
		c2.749,0,5.546,0.017,8.303-0.024c1.123-0.04,1.488,0.348,1.508,1.478c0.082,4.094,0.115,4.094-3.957,4.094
		c-0.975,0.022-1.953,0-2.938,0V270.024z"/>
	<path clip-path="url(#SVGID_30_)" fill-rule="evenodd" clip-rule="evenodd" fill="#939598" d="M453.586,323.936
		c-1.802,0-3.597-0.033-5.385,0.025c-0.967,0.024-1.369-0.331-1.34-1.319c0.09-5.216-0.684-4.171,3.92-4.25
		c2.73-0.074,5.457,0.019,8.164-0.049c1.2-0.036,1.571,0.45,1.598,1.621c0.094,3.972,0.141,3.972-3.877,3.972H453.586z"/>
	<path clip-path="url(#SVGID_30_)" fill-rule="evenodd" clip-rule="evenodd" fill="#939598" d="M434.773,323.936
		c-1.84,0-3.693-0.021-5.525,0c-0.895,0.025-1.211-0.316-1.281-1.22c-0.297-4.317-0.322-4.324,3.902-4.349
		c2.713,0,5.429,0.024,8.151-0.024c1.101-0.025,1.628,0.259,1.663,1.551c0.066,4.042,0.1,4.042-3.987,4.042H434.773z"/>
	<path clip-path="url(#SVGID_30_)" fill-rule="evenodd" clip-rule="evenodd" fill="#939598" d="M453.557,270.024
		c-1.785,0-3.567-0.022-5.355,0.012c-0.988,0.009-1.369-0.386-1.34-1.352c0.062-5.22-0.709-4.154,3.92-4.23
		c2.73-0.053,5.457,0.031,8.164-0.024c1.173-0.04,1.646,0.311,1.598,1.549c-0.116,4.89,0.539,3.926-3.877,4.023
		C455.626,270.036,454.592,270.024,453.557,270.024"/>
	<path clip-path="url(#SVGID_30_)" fill-rule="evenodd" clip-rule="evenodd" fill="#939598" d="M453.586,313.145
		c-1.788,0-3.574-0.021-5.385,0.014c-0.967,0.034-1.369-0.342-1.355-1.331c0.117-5.197-0.693-4.127,3.983-4.23
		c2.728-0.079,5.459,0.027,8.173-0.022c1.144-0.025,1.541,0.4,1.541,1.513c-0.026,5.024,0.445,3.962-3.846,4.071
		c-1.021,0.034-2.08,0-3.111,0V313.145z"/>
	<path clip-path="url(#SVGID_30_)" fill-rule="evenodd" clip-rule="evenodd" fill="#939598" d="M434.656,313.145
		c-1.787,0-3.602-0.021-5.385,0.014c-0.909,0.034-1.225-0.331-1.305-1.234c-0.391-4.365-0.361-4.375,3.912-4.35
		c2.801,0.022,5.576,0.05,8.344,0c1.038-0.025,1.461,0.347,1.445,1.409c-0.125,5.128,0.649,4.022-3.911,4.175
		c-1.021,0.034-2.042,0.01-3.101,0.01V313.145z"/>
	
		<rect x="476.745" y="307.912" clip-path="url(#SVGID_30_)" fill-rule="evenodd" clip-rule="evenodd" fill="#939598" width="32.024" height="4.997"/>
	
		<rect x="476.707" y="286.295" clip-path="url(#SVGID_30_)" fill-rule="evenodd" clip-rule="evenodd" fill="#939598" width="13.129" height="5.008"/>
	
		<rect x="495.644" y="286.285" clip-path="url(#SVGID_30_)" fill-rule="evenodd" clip-rule="evenodd" fill="#939598" width="13.146" height="5.026"/>
	
		<rect x="476.721" y="275.48" clip-path="url(#SVGID_30_)" fill-rule="evenodd" clip-rule="evenodd" fill="#939598" width="13.115" height="5.002"/>
	
		<rect x="495.671" y="275.48" clip-path="url(#SVGID_30_)" fill-rule="evenodd" clip-rule="evenodd" fill="#939598" width="13.118" height="4.961"/>
	
		<rect x="476.769" y="297.135" clip-path="url(#SVGID_30_)" fill-rule="evenodd" clip-rule="evenodd" fill="#939598" width="13.104" height="4.97"/>
	
		<rect x="495.645" y="297.162" clip-path="url(#SVGID_30_)" fill-rule="evenodd" clip-rule="evenodd" fill="#939598" width="13.171" height="4.913"/>
	
		<rect x="476.744" y="264.732" clip-path="url(#SVGID_30_)" fill-rule="evenodd" clip-rule="evenodd" fill="#939598" width="13.119" height="4.947"/>
	
		<rect x="476.744" y="318.716" clip-path="url(#SVGID_30_)" fill-rule="evenodd" clip-rule="evenodd" fill="#939598" width="13.119" height="4.998"/>
	
		<rect x="495.671" y="318.765" clip-path="url(#SVGID_30_)" fill-rule="evenodd" clip-rule="evenodd" fill="#939598" width="13.099" height="4.951"/>
	
		<rect x="476.751" y="329.512" clip-path="url(#SVGID_30_)" fill-rule="evenodd" clip-rule="evenodd" fill="#939598" width="13.112" height="4.991"/>
	
		<rect x="495.717" y="329.557" clip-path="url(#SVGID_30_)" fill-rule="evenodd" clip-rule="evenodd" fill="#939598" width="13.072" height="4.916"/>
	
		<rect x="495.671" y="264.675" clip-path="url(#SVGID_30_)" fill-rule="evenodd" clip-rule="evenodd" fill="#939598" width="13.099" height="5.023"/>
	
		<rect x="379.729" y="297.088" clip-path="url(#SVGID_30_)" fill-rule="evenodd" clip-rule="evenodd" fill="#939598" width="32.025" height="4.987"/>
	
		<rect x="379.689" y="286.329" clip-path="url(#SVGID_30_)" fill-rule="evenodd" clip-rule="evenodd" fill="#939598" width="13.168" height="4.973"/>
	
		<rect x="398.634" y="286.294" clip-path="url(#SVGID_30_)" fill-rule="evenodd" clip-rule="evenodd" fill="#939598" width="13.143" height="5.017"/>
	
		<rect x="379.771" y="318.696" clip-path="url(#SVGID_30_)" fill-rule="evenodd" clip-rule="evenodd" fill="#939598" width="13.033" height="4.981"/>
	
		<rect x="398.658" y="318.716" clip-path="url(#SVGID_30_)" fill-rule="evenodd" clip-rule="evenodd" fill="#939598" width="13.096" height="4.998"/>
	
		<rect x="379.74" y="329.537" clip-path="url(#SVGID_30_)" fill-rule="evenodd" clip-rule="evenodd" fill="#939598" width="13.117" height="4.957"/>
	
		<rect x="398.635" y="329.537" clip-path="url(#SVGID_30_)" fill-rule="evenodd" clip-rule="evenodd" fill="#939598" width="13.105" height="4.957"/>
	
		<rect x="398.692" y="307.951" clip-path="url(#SVGID_30_)" fill-rule="evenodd" clip-rule="evenodd" fill="#939598" width="13.036" height="4.995"/>
	
		<rect x="379.74" y="307.921" clip-path="url(#SVGID_30_)" fill-rule="evenodd" clip-rule="evenodd" fill="#939598" width="13.085" height="5.016"/>
</g>
<g>
	<defs>
		<rect id="SVGID_31_" width="841.89" height="595.279"/>
	</defs>
	<clipPath id="SVGID_32_">
		<use xlink:href="#SVGID_31_"  overflow="visible"/>
	</clipPath>
	<path clip-path="url(#SVGID_32_)" fill="none" stroke="#939598" stroke-width="2" stroke-miterlimit="10" d="M548.151,264.485
		c0-56.935-46.157-103.081-103.077-103.081c-56.931,0-103.084,46.146-103.084,103.081c0,56.938,46.153,103.082,103.084,103.082
		C501.994,367.567,548.151,321.422,548.151,264.485z"/>
	
		<path clip-path="url(#SVGID_32_)" fill="none" stroke="#939598" stroke-width="1.25" stroke-miterlimit="10" stroke-dasharray="2,2" d="
		M307.631,416.823h83.62c0,0,12.437,2.141,12.85-3.981c0.405-6.118-2.46-7.725-14.757-7.725h-11.895c0,0-11.064-2.256-10.244-10.307
		c0.817-8.055,8.608-8.055,12.298-8.055h39.352"/>
	
		<path clip-path="url(#SVGID_32_)" fill="none" stroke="#939598" stroke-width="1.25" stroke-miterlimit="10" stroke-dasharray="2,2" d="
		M418.57,386.964h36.071c0,0,8.206,0.327,8.206,6.443v19.001c0,0,2.043,4.188,5.324,4.351c3.279,0.16,6.365-1.448,6.563-4.189
		c0.198-2.735,0-35.59,0-35.59s0.407-8.537,9.839-8.696c9.424-0.162,10.453,5.156,10.453,7.732v68.504c0,0,3.652,12.67,18.127,12.67
		c14.471,0,20.209-9.227,20.209-13.738v-85.795"/>
	
		<path clip-path="url(#SVGID_32_)" fill="none" stroke="#939598" stroke-width="1.25" stroke-miterlimit="10" stroke-dasharray="2,2" d="
		M262.094,379.133v-36.066c0,0-0.373-8.207-7.52-8.207h-22.199c0,0-4.888-2.044-5.084-5.323c-0.181-3.285,1.698-6.363,4.894-6.563
		c3.198-0.198,41.569,0,41.569,0s9.972-0.412,10.156-9.841c0.196-9.427-6.015-10.449-9.025-10.449h-80.014
		c0,0-14.791-3.653-14.791-18.128s10.783-20.206,16.047-20.206h100.205"/>
	
		<path clip-path="url(#SVGID_32_)" fill="none" stroke="#939598" stroke-width="1.25" stroke-miterlimit="10" stroke-dasharray="2,2" d="
		M543.908,293.196h76.844c0,0,11.422-2.876,11.803,5.326c0.373,8.203-2.26,10.367-13.561,10.367h-10.934
		c0,0-10.156,3.022-9.406,13.828c0.748,10.788,7.902,10.788,11.299,10.788h16.825c0,0,10.156,2.083,10.534,11.11
		c0.376,9.034-10.912,7.904-15.421,8.277c-4.52,0.379-38.376,0-38.376,0"/>
	<path clip-path="url(#SVGID_32_)" fill-rule="evenodd" clip-rule="evenodd" fill="#939598" d="M581.65,337.27
		c-3.013-0.024-6.021,0-9.035,0c0.122-0.193,0.248-0.374,0.363-0.555c-0.76-0.854-1.524-1.713-2.291-2.576
		c-0.742,0.872-1.482,1.732-2.562,3.015h-7.598c-1.08-1.271-1.819-2.143-2.571-3.015c-0.8,0.897-1.575,1.791-2.634,2.991h-7.266
		c-1.01-1.299-1.689-2.14-2.378-2.991c-0.821,0.872-1.646,1.743-2.479,2.591c0.105,0.187,0.226,0.347,0.345,0.54
		c-3.228,0-6.444,0.025-9.677-0.024c-1.88-0.023-2.718,0.728-2.718,2.704c0.062,11.57,0.075,23.163,0,34.729
		c-0.011,2.115,0.86,2.821,2.843,2.754c2.227-0.086,4.459,0.046,6.68-0.045c1.482-0.074,2.232,0.315,2.773,1.878
		c2.119,6.052,8.01,10.064,14.416,10.085c6.516,0.011,12.415-4.019,14.553-10.182c0.52-1.466,1.201-1.855,2.621-1.781
		c2.156,0.099,4.32,0.031,6.471,0.019c2.873-0.009,3.138-0.271,3.138-3.047v-34.075C584.644,337.693,584.236,337.295,581.65,337.27
		 M557.861,385.992c-6.758-0.027-12.105-5.437-12.086-12.207c0.036-6.63,5.445-12.037,12.062-12.072
		c6.736-0.032,12.206,5.42,12.206,12.153C570.044,380.63,564.645,386,557.861,385.992 M581.15,374.007h-7.535
		c-1.854-10.122-7.418-15.721-15.686-15.646c-6.248,0.07-14.576,3.928-15.707,15.636h-7.542v-23.373h46.47V374.007z"/>
</g>
<g>
	<defs>
		<path id="SVGID_33_" d="M534.681,350.624v23.373h7.542c1.131-11.708,9.459-15.565,15.707-15.636
			c8.268-0.074,13.832,5.524,15.686,15.646h7.536v-23.384H534.681z"/>
	</defs>
	<clipPath id="SVGID_34_">
		<use xlink:href="#SVGID_33_"  overflow="visible"/>
	</clipPath>
	
		<linearGradient id="SVGID_35_" gradientUnits="userSpaceOnUse" x1="0" y1="595.2788" x2="1" y2="595.2788" gradientTransform="matrix(46.4697 0 0 -46.4697 534.6875 28024.7539)">
		<stop  offset="0" style="stop-color:#C5E1EF"/>
		<stop  offset="1" style="stop-color:#94C2E2"/>
		<a:midPointStop  offset="0" style="stop-color:#C5E1EF"/>
		<a:midPointStop  offset="0.4893" style="stop-color:#C5E1EF"/>
		<a:midPointStop  offset="1" style="stop-color:#94C2E2"/>
	</linearGradient>
	<rect x="534.681" y="350.624" clip-path="url(#SVGID_34_)" fill="url(#SVGID_35_)" width="46.471" height="23.385"/>
</g>
<g>
	<defs>
		<rect id="SVGID_36_" width="841.89" height="595.279"/>
	</defs>
	<clipPath id="SVGID_37_">
		<use xlink:href="#SVGID_36_"  overflow="visible"/>
	</clipPath>
	<path clip-path="url(#SVGID_37_)" fill-rule="evenodd" clip-rule="evenodd" fill="#939598" d="M558.296,364.541
		c0.438,0.712,1.085,1.366,1.251,2.118c0.206,0.965,0.164,2.01,0.029,3c-0.35,3.018,0.195,5.594,2.823,7.571
		c0.497,0.392,0.294,1.704,0.427,2.573c-0.883-0.071-2.013,0.169-2.625-0.293c-2.857-2.078-4.717-4.689-4.02-8.548
		c0.257-1.382-0.097-2.866,0.102-4.274c0.119-0.756,0.804-1.425,1.227-2.129C557.768,364.541,558.03,364.541,558.296,364.541"/>
	<path clip-path="url(#SVGID_37_)" fill="none" stroke="#939598" stroke-width="0.75" stroke-miterlimit="10" d="M352.282,219.845
		v-63.199c0,0,0-6.524-9.032-6.524h-9.03"/>
</g>
<g>
	<defs>
		<path id="SVGID_38_" d="M335.582,150.262c0,0,1.124,5.083,5.262,4.139c4.14-0.939,3.95-4.139,3.95-4.139H335.582z"/>
	</defs>
	<clipPath id="SVGID_39_">
		<use xlink:href="#SVGID_38_"  overflow="visible"/>
	</clipPath>
	
		<linearGradient id="SVGID_40_" gradientUnits="userSpaceOnUse" x1="0" y1="595.2339" x2="1" y2="595.2339" gradientTransform="matrix(9.2148 0 0 -9.2148 335.5781 5637.7896)">
		<stop  offset="0" style="stop-color:#DBE12B"/>
		<stop  offset="0.2898" style="stop-color:#DEE44D"/>
		<stop  offset="0.7656" style="stop-color:#E3E87F"/>
		<stop  offset="1" style="stop-color:#E5EA93"/>
		<a:midPointStop  offset="0" style="stop-color:#DBE12B"/>
		<a:midPointStop  offset="0.453" style="stop-color:#DBE12B"/>
		<a:midPointStop  offset="1" style="stop-color:#E5EA93"/>
	</linearGradient>
	<rect x="335.582" y="150.262" clip-path="url(#SVGID_39_)" fill="url(#SVGID_40_)" width="9.402" height="5.083"/>
</g>
<g>
	<defs>
		<rect id="SVGID_41_" width="841.89" height="595.279"/>
	</defs>
	<clipPath id="SVGID_42_">
		<use xlink:href="#SVGID_41_"  overflow="visible"/>
	</clipPath>
	<path clip-path="url(#SVGID_42_)" fill="none" stroke="#939598" stroke-miterlimit="10" d="M344.795,150.262
		c0,0,0.189,3.199-3.95,4.139c-4.139,0.943-5.263-4.139-5.263-4.139H344.795z"/>
	<path clip-path="url(#SVGID_42_)" fill="none" stroke="#939598" stroke-width="0.75" stroke-miterlimit="10" d="M512.54,187.491
		v-63.2c0,0,0-6.524,9.026-6.524h9.035"/>
</g>
<g>
	<defs>
		<path id="SVGID_43_" d="M520.111,117.933c0,0-0.188,3.199,3.954,4.142c4.136,0.942,5.266-4.142,5.266-4.142H520.111z"/>
	</defs>
	<clipPath id="SVGID_44_">
		<use xlink:href="#SVGID_43_"  overflow="visible"/>
	</clipPath>
	
		<linearGradient id="SVGID_45_" gradientUnits="userSpaceOnUse" x1="0" y1="595.2339" x2="1" y2="595.2339" gradientTransform="matrix(9.2197 0 0 -9.2197 520.1094 5608.3677)">
		<stop  offset="0" style="stop-color:#DBE12B"/>
		<stop  offset="0.2898" style="stop-color:#DEE44D"/>
		<stop  offset="0.7656" style="stop-color:#E3E87F"/>
		<stop  offset="1" style="stop-color:#E5EA93"/>
		<a:midPointStop  offset="0" style="stop-color:#DBE12B"/>
		<a:midPointStop  offset="0.453" style="stop-color:#DBE12B"/>
		<a:midPointStop  offset="1" style="stop-color:#E5EA93"/>
	</linearGradient>
	<rect x="519.924" y="117.933" clip-path="url(#SVGID_44_)" fill="url(#SVGID_45_)" width="9.407" height="5.084"/>
</g>
<g>
	<defs>
		<rect id="SVGID_46_" width="841.89" height="595.279"/>
	</defs>
	<clipPath id="SVGID_47_">
		<use xlink:href="#SVGID_46_"  overflow="visible"/>
	</clipPath>
	<path clip-path="url(#SVGID_47_)" fill="none" stroke="#939598" stroke-miterlimit="10" d="M520.111,117.932
		c0,0-0.188,3.199,3.953,4.143c4.137,0.941,5.266-4.143,5.266-4.143H520.111z"/>
</g>
<g>
	<defs>
		<path id="SVGID_48_" d="M363.81,190.001c0,0-2.261,0-12.788,2.256c-10.538,2.255-10.538,15.05-10.538,15.05h86.53
			c0,0,0.753-6.398-4.518-9.406c-5.266-3.014-16.547-2.637-16.547-2.637c-4.894-10.156-7.147-15.048-24.078-15.048
			C365.693,180.216,363.81,190.001,363.81,190.001"/>
	</defs>
	<clipPath id="SVGID_49_">
		<use xlink:href="#SVGID_48_"  overflow="visible"/>
	</clipPath>
	
		<linearGradient id="SVGID_50_" gradientUnits="userSpaceOnUse" x1="0" y1="595.2788" x2="1" y2="595.2788" gradientTransform="matrix(86.5664 0 0 -86.5664 340.5 51724.9258)">
		<stop  offset="0" style="stop-color:#C7E1A9"/>
		<stop  offset="1" style="stop-color:#A6DCE3"/>
		<a:midPointStop  offset="0" style="stop-color:#C7E1A9"/>
		<a:midPointStop  offset="0.5089" style="stop-color:#C7E1A9"/>
		<a:midPointStop  offset="1" style="stop-color:#A6DCE3"/>
	</linearGradient>
	<rect x="340.484" y="180.216" clip-path="url(#SVGID_49_)" fill="url(#SVGID_50_)" width="87.283" height="27.091"/>
</g>
<g>
	<defs>
		<rect id="SVGID_51_" width="841.89" height="595.279"/>
	</defs>
	<clipPath id="SVGID_52_">
		<use xlink:href="#SVGID_51_"  overflow="visible"/>
	</clipPath>
	<path clip-path="url(#SVGID_52_)" fill="none" stroke="#939598" stroke-miterlimit="10" d="M427.014,207.307h-86.529
		c0,0,0-12.796,10.537-15.05C361.549,190,363.81,190,363.81,190s1.883-9.784,18.061-9.784c16.931,0,19.185,4.892,24.079,15.048
		c0,0,11.281-0.377,16.546,2.637C427.768,200.909,427.014,207.307,427.014,207.307z"/>
</g>
<g>
	<defs>
		<path id="SVGID_53_" d="M514.617,228.793c0,0-7.812-0.262-11.458,1.829c-3.648,2.088-3.126,6.509-3.126,6.509h59.922
			c0,0,0-8.862-7.291-10.417c-7.296-1.561-8.865-1.561-8.865-1.561s-1.297-6.775-12.498-6.775
			C519.573,218.378,518.006,221.761,514.617,228.793"/>
	</defs>
	<clipPath id="SVGID_54_">
		<use xlink:href="#SVGID_53_"  overflow="visible"/>
	</clipPath>
	
		<linearGradient id="SVGID_55_" gradientUnits="userSpaceOnUse" x1="0" y1="595.2788" x2="1" y2="595.2788" gradientTransform="matrix(59.9482 0 0 -59.9482 500 35913.6641)">
		<stop  offset="0" style="stop-color:#C7E1A9"/>
		<stop  offset="1" style="stop-color:#A6DCE3"/>
		<a:midPointStop  offset="0" style="stop-color:#C7E1A9"/>
		<a:midPointStop  offset="0.5089" style="stop-color:#C7E1A9"/>
		<a:midPointStop  offset="1" style="stop-color:#A6DCE3"/>
	</linearGradient>
	<rect x="499.511" y="218.378" clip-path="url(#SVGID_54_)" fill="url(#SVGID_55_)" width="60.444" height="18.753"/>
</g>
<g>
	<defs>
		<rect id="SVGID_56_" width="841.89" height="595.279"/>
	</defs>
	<clipPath id="SVGID_57_">
		<use xlink:href="#SVGID_56_"  overflow="visible"/>
	</clipPath>
	<path clip-path="url(#SVGID_57_)" fill="none" stroke="#939598" stroke-miterlimit="10" d="M500.033,237.131h59.922
		c0,0,0-8.862-7.291-10.418c-7.297-1.561-8.865-1.561-8.865-1.561s-1.297-6.775-12.498-6.775c-11.729,0-13.295,3.384-16.684,10.415
		c0,0-7.811-0.262-11.459,1.83C499.511,232.71,500.033,237.131,500.033,237.131z"/>
</g>
<g>
	<defs>
		<path id="SVGID_58_" d="M573.28,340.677c-1.052,1.226-1.806,2.09-2.559,2.963c-0.763-0.819-1.503-1.655-2.64-2.912h-8.371
			c0.127,0.162,0.268,0.341,0.409,0.507c-0.709,0.8-1.412,1.596-2.115,2.405c-0.799-0.873-1.603-1.737-2.727-2.937h-7.113
			c-1.153,1.269-1.894,2.117-2.657,2.937c-0.754-0.854-1.52-1.711-2.551-2.889h-8.316v6.274h46.487v-6.349H573.28z"/>
	</defs>
	<clipPath id="SVGID_59_">
		<use xlink:href="#SVGID_58_"  overflow="visible"/>
	</clipPath>
	
		<linearGradient id="SVGID_60_" gradientUnits="userSpaceOnUse" x1="-4.882812e-04" y1="595.2788" x2="0.9995" y2="595.2788" gradientTransform="matrix(46.4873 0 0 -46.4873 534.6562 28016.75)">
		<stop  offset="0" style="stop-color:#BBD871"/>
		<stop  offset="1" style="stop-color:#C6DE87"/>
		<a:midPointStop  offset="0" style="stop-color:#BBD871"/>
		<a:midPointStop  offset="0.5295" style="stop-color:#BBD871"/>
		<a:midPointStop  offset="1" style="stop-color:#C6DE87"/>
	</linearGradient>
	<rect x="534.641" y="340.677" clip-path="url(#SVGID_59_)" fill="url(#SVGID_60_)" width="46.487" height="6.349"/>
</g>
<g>
	<defs>
		<path id="SVGID_61_" d="M263.74,378.101c0,24.933,20.206,45.146,45.146,45.146c24.932,0,45.14-20.213,45.14-45.146
			c0-24.936-20.208-45.146-45.14-45.146C283.946,332.956,263.74,353.166,263.74,378.101"/>
	</defs>
	<clipPath id="SVGID_62_">
		<use xlink:href="#SVGID_61_"  overflow="visible"/>
	</clipPath>
	
		<linearGradient id="SVGID_63_" gradientUnits="userSpaceOnUse" x1="-4.882812e-04" y1="595.2778" x2="0.9995" y2="595.2778" gradientTransform="matrix(90.2852 0 0 -90.2852 263.75 54122.9297)">
		<stop  offset="0" style="stop-color:#DBE12B"/>
		<stop  offset="0.2898" style="stop-color:#DEE44D"/>
		<stop  offset="0.7656" style="stop-color:#E3E87F"/>
		<stop  offset="1" style="stop-color:#E5EA93"/>
		<a:midPointStop  offset="0" style="stop-color:#DBE12B"/>
		<a:midPointStop  offset="0.453" style="stop-color:#DBE12B"/>
		<a:midPointStop  offset="1" style="stop-color:#E5EA93"/>
	</linearGradient>
	<rect x="263.74" y="332.956" clip-path="url(#SVGID_62_)" fill="url(#SVGID_63_)" width="90.286" height="90.291"/>
</g>
<g>
	<defs>
		<rect id="SVGID_64_" width="841.89" height="595.279"/>
	</defs>
	<clipPath id="SVGID_65_">
		<use xlink:href="#SVGID_64_"  overflow="visible"/>
	</clipPath>
	<path clip-path="url(#SVGID_65_)" fill="none" stroke="#939598" stroke-width="2" stroke-miterlimit="10" d="M354.025,378.101
		c0-24.935-20.207-45.146-45.139-45.146c-24.94,0-45.146,20.211-45.146,45.146c0,24.933,20.206,45.146,45.146,45.146
		C333.818,423.248,354.025,403.034,354.025,378.101z"/>
	<path clip-path="url(#SVGID_65_)" fill-rule="evenodd" clip-rule="evenodd" fill="#939598" d="M326.316,383.988
		c0.999,1.212,1.789,1.987,2.366,2.892c1.315,2.04,0.563,4.551-1.462,5.859c-0.934,0.621-1.612,1.646-2.455,2.421
		c-2.116,1.986-4.254,3.925-6.361,5.902c-0.457,0.448-1.01,0.866-1.266,1.409c-1.414,2.966-4.447,3.761-6.889,1.552
		c-1.704-1.552-3.127-3.423-4.766-5.242c-0.982,0.912-1.534,1.434-2.097,1.942c-2.424,2.135-4.775,1.681-6.789-0.795
		c-1.903-2.351-4.254-4.344-6.412-6.51c-1.807-1.809-3.734-3.526-5.404-5.454c-1.282-1.483-1.114-3.173,0.142-4.682
		c0.633-0.776,1.328-1.502,2.278-2.547c-2.051-1.918-4.09-3.731-5.98-5.68c-0.847-0.884-2.868-1.812-1.329-3.316
		c1.34-1.293,2.331,0.469,3.185,1.338c8.996,8.939,17.965,17.916,26.936,26.89c0.329,0.333,0.649,0.673,0.988,0.986
		c0.879,0.822,1.825,2.294,3.066,1.049c1.237-1.221-0.176-2.211-1.027-3.069c-1.806-1.837-3.623-3.636-5.429-5.465
		c-0.788-0.804-2.068-1.718-0.793-2.822c0.372-0.331,2.039,0.348,2.77,0.974c1.988,1.74,3.765,3.716,5.667,5.564
		c0.811,0.785,1.764,2.02,2.843,0.676c0.337-0.422-0.221-1.964-0.779-2.606c-1.804-2.049-3.837-3.878-5.743-5.832
		c-0.754-0.777-2.137-1.659-0.791-2.799c0.404-0.329,2.003,0.257,2.661,0.849c2.092,1.858,3.938,3.988,6.02,5.853
		c0.617,0.543,1.727,0.543,2.595,0.802c-0.21-0.942-0.13-2.142-0.68-2.774c-1.905-2.166-4.102-4.068-6.009-6.211
		c-0.528-0.585-0.494-1.687-0.704-2.56c0.859,0.202,1.975,0.126,2.552,0.633c2.193,1.973,4.172,4.209,6.373,6.184
		c0.573,0.518,1.672,0.447,2.512,0.637c-0.172-0.849-0.045-1.999-0.565-2.526c-5.603-5.74-11.128-11.532-17.07-16.932
		c-1.469-1.351-4.215-1.295-6.548-1.917c-0.679,3.306-1.664,5.837-4.749,6.869c-3.269,1.125-7.051-0.777-7.97-4.117
		c-1.764-6.228,3.397-14.414,9.75-14.815c3.275-0.213,6.607,0.638,9.904,1.034c0.476,0.05,0.943,0.11,1.392,0.261
		c3.776,1.319,6.73,0.703,9.335-2.759c1.88-2.52,4.38-2.283,6.652-0.073c3.786,3.701,7.513,7.442,11.23,11.228
		c2.338,2.397,2.285,4.396-0.11,6.899c-1.77,1.845-3.607,3.655-5.432,5.443C330.097,380.427,328.213,382.179,326.316,383.988
		 M330.2,376.252c-4.008-3.97-7.961-7.722-11.709-11.669c-1.957-2.062-4.01-3.414-6.936-3.635c-2.61-0.212-5.199-0.874-7.795-1.355
		c-6.89-1.255-10.923,1.661-11.838,8.584c-0.363,2.742,0.492,4.34,2.541,4.759c2.2,0.449,3.701-0.737,4.356-3.43
		c0.826-3.358,0.826-3.255,4.26-3.221c3.91,0.033,7.064,1.176,9.771,4.303c3.537,4.09,7.594,7.754,11.338,11.51
		C326.211,380.134,328.105,378.299,330.2,376.252 M332.303,374.55c1.165-1.281,2.069-2.362,3.082-3.325
		c1.174-1.106,1.069-2.06-0.049-3.149c-3.652-3.601-7.277-7.244-10.898-10.893c-1.104-1.128-2.119-1.103-3.174,0.05
		c-0.576,0.637-1.469,1.117-1.752,1.847c-0.294,0.764-0.424,2.101,0.024,2.573C323.604,365.933,327.825,370.069,332.303,374.55
		 M291.039,385.368c-0.81-0.968-1.386-1.637-2.278-2.695c-0.807,1.475-1.4,2.445-1.802,3.504c-0.082,0.186,0.87,1.079,1.047,0.989
		C289.027,386.697,289.971,386.037,291.039,385.368 M298.904,393.545c-0.761-0.996-1.271-1.669-2.021-2.653
		c-0.828,1.208-1.541,2.056-1.992,3.045c-0.1,0.211,0.912,1.28,1.104,1.195C297.014,394.756,297.917,394.114,298.904,393.545
		 M292.696,387.035c-0.622,1.071-1.257,2.031-1.697,3.094c-0.067,0.162,0.867,1.079,1.028,1.007c1.02-0.479,1.972-1.137,3.195-1.9
		C294.283,388.411,293.75,387.964,292.696,387.035 M300.685,394.829c-0.698,1.387-1.279,2.378-1.64,3.436
		c-0.067,0.188,0.907,1.034,1.073,0.962c0.992-0.54,1.878-1.257,3.004-2.042C302.229,396.322,301.689,395.794,300.685,394.829"/>
</g>
<g>
	<defs>
		<path id="SVGID_66_" d="M253.006,193.868v46.899c0,1.85,1.499,3.349,3.349,3.349h63.649c1.851,0,3.35-1.499,3.35-3.349v-46.899
			H253.006z"/>
	</defs>
	<clipPath id="SVGID_67_">
		<use xlink:href="#SVGID_66_"  overflow="visible"/>
	</clipPath>
	
		<linearGradient id="SVGID_68_" gradientUnits="userSpaceOnUse" x1="-4.882812e-04" y1="595.2778" x2="0.9995" y2="595.2778" gradientTransform="matrix(70.3477 0 0 -70.3477 253 42095.4336)">
		<stop  offset="0" style="stop-color:#BCE1C9"/>
		<stop  offset="1" style="stop-color:#96D2B1"/>
		<a:midPointStop  offset="0" style="stop-color:#BCE1C9"/>
		<a:midPointStop  offset="0.5122" style="stop-color:#BCE1C9"/>
		<a:midPointStop  offset="1" style="stop-color:#96D2B1"/>
	</linearGradient>
	<rect x="253.006" y="193.868" clip-path="url(#SVGID_67_)" fill="url(#SVGID_68_)" width="70.348" height="50.248"/>
</g>
<g>
	<defs>
		<rect id="SVGID_69_" width="841.89" height="595.279"/>
	</defs>
	<clipPath id="SVGID_70_">
		<use xlink:href="#SVGID_69_"  overflow="visible"/>
	</clipPath>
	<path clip-path="url(#SVGID_70_)" fill="none" stroke="#939598" stroke-width="2" stroke-miterlimit="10" d="M323.354,193.868
		h-70.348v46.899c0,1.85,1.499,3.349,3.35,3.349h63.648c1.852,0,3.35-1.499,3.35-3.349V193.868z"/>
</g>
<g>
	<defs>
		<path id="SVGID_71_" d="M253.006,187.167c-1.852,0-3.35,1.498-3.35,3.35c0,1.851,1.498,3.351,3.35,3.351h70.348
			c1.853,0,3.349-1.5,3.349-3.351c0-1.852-1.496-3.35-3.349-3.35H253.006z"/>
	</defs>
	<clipPath id="SVGID_72_">
		<use xlink:href="#SVGID_71_"  overflow="visible"/>
	</clipPath>
	
		<linearGradient id="SVGID_73_" gradientUnits="userSpaceOnUse" x1="0" y1="595.2788" x2="1" y2="595.2788" gradientTransform="matrix(77.0469 0 0 -77.0469 249.6875 46054.8984)">
		<stop  offset="0" style="stop-color:#BBD871"/>
		<stop  offset="1" style="stop-color:#C6DE87"/>
		<a:midPointStop  offset="0" style="stop-color:#BBD871"/>
		<a:midPointStop  offset="0.5295" style="stop-color:#BBD871"/>
		<a:midPointStop  offset="1" style="stop-color:#C6DE87"/>
	</linearGradient>
	<rect x="249.656" y="187.167" clip-path="url(#SVGID_72_)" fill="url(#SVGID_73_)" width="77.047" height="6.701"/>
</g>
<g>
	<defs>
		<rect id="SVGID_74_" width="841.89" height="595.279"/>
	</defs>
	<clipPath id="SVGID_75_">
		<use xlink:href="#SVGID_74_"  overflow="visible"/>
	</clipPath>
	<path clip-path="url(#SVGID_75_)" fill="none" stroke="#939598" stroke-width="2" stroke-miterlimit="10" d="M323.354,193.868
		h-70.348c-1.851,0-3.349-1.5-3.349-3.351s1.498-3.35,3.349-3.35h70.348c1.854,0,3.35,1.499,3.35,3.35
		S325.208,193.868,323.354,193.868z"/>
</g>
<g>
	<defs>
		<path id="SVGID_76_" d="M259.703,227.367c0,1.851,1.5,3.351,3.353,3.351c1.852,0,3.348-1.5,3.348-3.351
			c0-1.852-1.496-3.351-3.348-3.351C261.203,224.016,259.703,225.515,259.703,227.367"/>
	</defs>
	<clipPath id="SVGID_77_">
		<use xlink:href="#SVGID_76_"  overflow="visible"/>
	</clipPath>
	
		<linearGradient id="SVGID_78_" gradientUnits="userSpaceOnUse" x1="0" y1="595.2788" x2="1" y2="595.2788" gradientTransform="matrix(6.7012 0 0 -6.7012 259.7031 4216.4307)">
		<stop  offset="0" style="stop-color:#DBE12B"/>
		<stop  offset="0.2898" style="stop-color:#DEE44D"/>
		<stop  offset="0.7656" style="stop-color:#E3E87F"/>
		<stop  offset="1" style="stop-color:#E5EA93"/>
		<a:midPointStop  offset="0" style="stop-color:#DBE12B"/>
		<a:midPointStop  offset="0.453" style="stop-color:#DBE12B"/>
		<a:midPointStop  offset="1" style="stop-color:#E5EA93"/>
	</linearGradient>
	<rect x="259.703" y="224.016" clip-path="url(#SVGID_77_)" fill="url(#SVGID_78_)" width="6.701" height="6.702"/>
</g>
<g>
	<defs>
		<rect id="SVGID_79_" width="841.89" height="595.279"/>
	</defs>
	<clipPath id="SVGID_80_">
		<use xlink:href="#SVGID_79_"  overflow="visible"/>
	</clipPath>
	
		<circle clip-path="url(#SVGID_80_)" fill="none" stroke="#939598" stroke-width="2" stroke-miterlimit="10" cx="263.054" cy="227.367" r="3.351"/>
</g>
<g>
	<defs>
		<path id="SVGID_81_" d="M276.455,210.617c0,1.852,1.499,3.351,3.35,3.351s3.349-1.499,3.349-3.351c0-1.851-1.498-3.35-3.349-3.35
			S276.455,208.766,276.455,210.617"/>
	</defs>
	<clipPath id="SVGID_82_">
		<use xlink:href="#SVGID_81_"  overflow="visible"/>
	</clipPath>
	
		<linearGradient id="SVGID_83_" gradientUnits="userSpaceOnUse" x1="-4.882812e-04" y1="595.2788" x2="0.9995" y2="595.2788" gradientTransform="matrix(6.6982 0 0 -6.6982 276.457 4197.9404)">
		<stop  offset="0" style="stop-color:#DBE12B"/>
		<stop  offset="0.2898" style="stop-color:#DEE44D"/>
		<stop  offset="0.7656" style="stop-color:#E3E87F"/>
		<stop  offset="1" style="stop-color:#E5EA93"/>
		<a:midPointStop  offset="0" style="stop-color:#DBE12B"/>
		<a:midPointStop  offset="0.453" style="stop-color:#DBE12B"/>
		<a:midPointStop  offset="1" style="stop-color:#E5EA93"/>
	</linearGradient>
	<rect x="276.455" y="207.267" clip-path="url(#SVGID_82_)" fill="url(#SVGID_83_)" width="6.699" height="6.701"/>
</g>
<g>
	<defs>
		<rect id="SVGID_84_" width="841.89" height="595.279"/>
	</defs>
	<clipPath id="SVGID_85_">
		<use xlink:href="#SVGID_84_"  overflow="visible"/>
	</clipPath>
	
		<circle clip-path="url(#SVGID_85_)" fill="none" stroke="#939598" stroke-width="2" stroke-miterlimit="10" cx="279.804" cy="210.617" r="3.349"/>
</g>
<g>
	<defs>
		<path id="SVGID_86_" d="M289.858,224.016c0,1.853,1.494,3.351,3.348,3.351c1.851,0,3.349-1.498,3.349-3.351
			c0-1.849-1.498-3.349-3.349-3.349C291.352,220.667,289.858,222.167,289.858,224.016"/>
	</defs>
	<clipPath id="SVGID_87_">
		<use xlink:href="#SVGID_86_"  overflow="visible"/>
	</clipPath>
	
		<linearGradient id="SVGID_88_" gradientUnits="userSpaceOnUse" x1="0" y1="595.2788" x2="1" y2="595.2788" gradientTransform="matrix(6.6973 0 0 -6.6973 289.8594 4210.7573)">
		<stop  offset="0" style="stop-color:#DBE12B"/>
		<stop  offset="0.2898" style="stop-color:#DEE44D"/>
		<stop  offset="0.7656" style="stop-color:#E3E87F"/>
		<stop  offset="1" style="stop-color:#E5EA93"/>
		<a:midPointStop  offset="0" style="stop-color:#DBE12B"/>
		<a:midPointStop  offset="0.453" style="stop-color:#DBE12B"/>
		<a:midPointStop  offset="1" style="stop-color:#E5EA93"/>
	</linearGradient>
	<rect x="289.858" y="220.667" clip-path="url(#SVGID_87_)" fill="url(#SVGID_88_)" width="6.697" height="6.7"/>
</g>
<g>
	<defs>
		<rect id="SVGID_89_" width="841.89" height="595.279"/>
	</defs>
	<clipPath id="SVGID_90_">
		<use xlink:href="#SVGID_89_"  overflow="visible"/>
	</clipPath>
	<path clip-path="url(#SVGID_90_)" fill="none" stroke="#939598" stroke-width="2" stroke-miterlimit="10" d="M296.555,224.016
		c0,1.853-1.498,3.351-3.349,3.351c-1.853,0-3.348-1.498-3.348-3.351c0-1.85,1.495-3.35,3.348-3.35
		C295.057,220.666,296.555,222.166,296.555,224.016z"/>
</g>
<g>
	<defs>
		<path id="SVGID_91_" d="M306.605,207.267c0,1.853,1.497,3.35,3.351,3.35c1.851,0,3.35-1.497,3.35-3.35
			c0-1.852-1.499-3.349-3.35-3.349C308.102,203.918,306.605,205.415,306.605,207.267"/>
	</defs>
	<clipPath id="SVGID_92_">
		<use xlink:href="#SVGID_91_"  overflow="visible"/>
	</clipPath>
	
		<linearGradient id="SVGID_93_" gradientUnits="userSpaceOnUse" x1="4.882812e-04" y1="595.2788" x2="1.0005" y2="595.2788" gradientTransform="matrix(6.7021 0 0 -6.7021 306.6055 4196.9141)">
		<stop  offset="0" style="stop-color:#DBE12B"/>
		<stop  offset="0.2898" style="stop-color:#DEE44D"/>
		<stop  offset="0.7656" style="stop-color:#E3E87F"/>
		<stop  offset="1" style="stop-color:#E5EA93"/>
		<a:midPointStop  offset="0" style="stop-color:#DBE12B"/>
		<a:midPointStop  offset="0.453" style="stop-color:#DBE12B"/>
		<a:midPointStop  offset="1" style="stop-color:#E5EA93"/>
	</linearGradient>
	<rect x="306.605" y="203.918" clip-path="url(#SVGID_92_)" fill="url(#SVGID_93_)" width="6.701" height="6.699"/>
</g>
<g>
	<defs>
		<rect id="SVGID_94_" width="841.89" height="595.279"/>
	</defs>
	<clipPath id="SVGID_95_">
		<use xlink:href="#SVGID_94_"  overflow="visible"/>
	</clipPath>
	<path clip-path="url(#SVGID_95_)" fill="none" stroke="#939598" stroke-width="2" stroke-miterlimit="10" d="M313.307,207.266
		c0,1.854-1.5,3.351-3.352,3.351s-3.35-1.497-3.35-3.351c0-1.852,1.498-3.349,3.35-3.349S313.307,205.414,313.307,207.266z"/>
	
		<line clip-path="url(#SVGID_95_)" fill="none" stroke="#939598" stroke-width="2" stroke-linecap="round" stroke-linejoin="round" stroke-miterlimit="10" x1="307.587" y1="209.637" x2="295.572" y2="221.647"/>
	
		<line clip-path="url(#SVGID_95_)" fill="none" stroke="#939598" stroke-width="2" stroke-linecap="round" stroke-linejoin="round" stroke-miterlimit="10" x1="290.835" y1="221.647" x2="282.176" y2="212.986"/>
	
		<line clip-path="url(#SVGID_95_)" fill="none" stroke="#939598" stroke-width="2" stroke-linecap="round" stroke-linejoin="round" stroke-miterlimit="10" x1="277.438" y1="212.986" x2="265.424" y2="225"/>
	
		<rect x="283.153" y="244.116" clip-path="url(#SVGID_95_)" fill="none" stroke="#939598" stroke-width="2" stroke-linecap="round" stroke-linejoin="round" stroke-miterlimit="10" width="10.053" height="20.101"/>
	
		<line clip-path="url(#SVGID_95_)" fill="none" stroke="#939598" stroke-width="2" stroke-linecap="round" stroke-linejoin="round" stroke-miterlimit="10" x1="303.254" y1="264.216" x2="273.106" y2="264.216"/>
	
		<line clip-path="url(#SVGID_95_)" fill="none" stroke="#939598" stroke-width="2" stroke-linecap="round" stroke-linejoin="round" stroke-miterlimit="10" x1="260.687" y1="225" x2="253.005" y2="217.316"/>
	
		<line clip-path="url(#SVGID_95_)" fill="none" stroke="#939598" stroke-width="2" stroke-linecap="round" stroke-linejoin="round" stroke-miterlimit="10" x1="312.324" y1="209.637" x2="323.353" y2="220.666"/>
	
		<line clip-path="url(#SVGID_95_)" fill="none" stroke="#939598" stroke-width="2" stroke-linecap="round" stroke-linejoin="round" stroke-miterlimit="10" x1="263.056" y1="237.417" x2="263.056" y2="244.116"/>
	
		<line clip-path="url(#SVGID_95_)" fill="none" stroke="#939598" stroke-width="2" stroke-linecap="round" stroke-linejoin="round" stroke-miterlimit="10" x1="283.153" y1="222.34" x2="283.153" y2="244.115"/>
	
		<line clip-path="url(#SVGID_95_)" fill="none" stroke="#939598" stroke-width="2" stroke-linecap="round" stroke-linejoin="round" stroke-miterlimit="10" x1="293.206" y1="234.066" x2="293.206" y2="244.116"/>
	
		<line clip-path="url(#SVGID_95_)" fill="none" stroke="#939598" stroke-width="2" stroke-linecap="round" stroke-linejoin="round" stroke-miterlimit="10" x1="303.254" y1="222.34" x2="303.254" y2="244.115"/>
	
		<line clip-path="url(#SVGID_95_)" fill="none" stroke="#939598" stroke-width="2" stroke-linecap="round" stroke-linejoin="round" stroke-miterlimit="10" x1="313.307" y1="218.992" x2="313.307" y2="244.116"/>
	
		<line clip-path="url(#SVGID_95_)" fill="none" stroke="#939598" stroke-width="2" stroke-linecap="round" stroke-linejoin="round" stroke-miterlimit="10" x1="273.105" y1="225.693" x2="273.105" y2="244.116"/>
</g>
<g>
	<defs>
		<path id="SVGID_96_" d="M541.688,161.826c-2.963,0.574-5.342,2.979-5.891,5.948c-0.445,2.396,0.247,4.635,1.629,6.277
			c0.898,1.072,1.467,2.379,1.467,3.776h8.613v-0.006c0-1.369,0.526-2.671,1.417-3.712c1.13-1.316,1.812-3.023,1.812-4.894
			c0-4.161-3.373-7.536-7.536-7.536C542.704,161.679,542.199,161.726,541.688,161.826"/>
	</defs>
	<clipPath id="SVGID_97_">
		<use xlink:href="#SVGID_96_"  overflow="visible"/>
	</clipPath>
	
		<linearGradient id="SVGID_98_" gradientUnits="userSpaceOnUse" x1="0" y1="595.2788" x2="1" y2="595.2788" gradientTransform="matrix(15.0713 0 0 -15.0713 535.6641 9141.3672)">
		<stop  offset="0" style="stop-color:#DBE12B"/>
		<stop  offset="0.2898" style="stop-color:#DEE44D"/>
		<stop  offset="0.7656" style="stop-color:#E3E87F"/>
		<stop  offset="1" style="stop-color:#E5EA93"/>
		<a:midPointStop  offset="0" style="stop-color:#DBE12B"/>
		<a:midPointStop  offset="0.453" style="stop-color:#DBE12B"/>
		<a:midPointStop  offset="1" style="stop-color:#E5EA93"/>
	</linearGradient>
	<rect x="535.352" y="161.679" clip-path="url(#SVGID_97_)" fill="url(#SVGID_98_)" width="15.383" height="16.148"/>
</g>
<g>
	<defs>
		<rect id="SVGID_99_" width="841.89" height="595.279"/>
	</defs>
	<clipPath id="SVGID_100_">
		<use xlink:href="#SVGID_99_"  overflow="visible"/>
	</clipPath>
	<path clip-path="url(#SVGID_100_)" fill="none" stroke="#939598" stroke-miterlimit="10" d="M550.734,169.215
		c0-4.656-4.221-8.327-9.048-7.39c-2.962,0.575-5.341,2.98-5.891,5.948c-0.444,2.397,0.249,4.635,1.63,6.278
		c0.898,1.071,1.467,2.378,1.467,3.776h8.613v-0.007c0-1.369,0.526-2.67,1.418-3.711
		C550.053,172.792,550.734,171.085,550.734,169.215z"/>
	
		<path clip-path="url(#SVGID_100_)" fill="none" stroke="#939598" stroke-linecap="round" stroke-linejoin="round" stroke-miterlimit="10" d="
		M542.123,177.828v-7.535c0-0.597-0.48-1.077-1.076-1.077c-0.597,0-1.078,0.48-1.078,1.077c0,0.593,0.481,1.074,1.078,1.074h4.305
		c0.596,0,1.077-0.481,1.077-1.074c0-0.597-0.481-1.077-1.077-1.077c-0.594,0-1.076,0.48-1.076,1.077v7.535"/>
	
		<path clip-path="url(#SVGID_100_)" fill="none" stroke="#939598" stroke-linecap="round" stroke-linejoin="round" stroke-miterlimit="10" d="
		M545.353,184.288c0,1.187-0.964,2.153-2.153,2.153s-2.152-0.966-2.152-2.153"/>
	
		<path clip-path="url(#SVGID_100_)" fill="none" stroke="#939598" stroke-linecap="round" stroke-linejoin="round" stroke-miterlimit="10" d="
		M545.293,164.255c0.645,0.272,1.223,0.667,1.712,1.153c0.484,0.489,0.881,1.069,1.153,1.713"/>
</g>
<g>
	<defs>
		<path id="SVGID_101_" d="M539.969,177.827c-0.591,0-1.076,0.484-1.076,1.077c0,0.592,0.485,1.076,1.076,1.076
			c-0.591,0-1.076,0.486-1.076,1.078c0,0.591,0.485,1.078,1.076,1.078c-0.591,0-1.076,0.484-1.076,1.075
			c0,0.593,0.485,1.077,1.076,1.077h6.46c0.59,0,1.077-0.484,1.077-1.077c0-0.591-0.487-1.075-1.077-1.075
			c0.59,0,1.077-0.487,1.077-1.078c0-0.592-0.487-1.078-1.077-1.078c0.59,0,1.077-0.484,1.077-1.076
			c0-0.593-0.487-1.077-1.077-1.077H539.969z"/>
	</defs>
	<clipPath id="SVGID_102_">
		<use xlink:href="#SVGID_101_"  overflow="visible"/>
	</clipPath>
	
		<linearGradient id="SVGID_103_" gradientUnits="userSpaceOnUse" x1="0" y1="595.2788" x2="1" y2="595.2788" gradientTransform="matrix(8.6133 0 0 -8.6133 538.8906 5308.3638)">
		<stop  offset="0" style="stop-color:#B5D7D9"/>
		<stop  offset="0.264" style="stop-color:#A9CBCD"/>
		<stop  offset="1" style="stop-color:#8CACAE"/>
		<a:midPointStop  offset="0" style="stop-color:#B5D7D9"/>
		<a:midPointStop  offset="0.4699" style="stop-color:#B5D7D9"/>
		<a:midPointStop  offset="1" style="stop-color:#8CACAE"/>
	</linearGradient>
	<rect x="538.893" y="177.827" clip-path="url(#SVGID_102_)" fill="url(#SVGID_103_)" width="8.613" height="6.461"/>
</g>
<g>
	<defs>
		<rect id="SVGID_104_" width="841.89" height="595.279"/>
	</defs>
	<clipPath id="SVGID_105_">
		<use xlink:href="#SVGID_104_"  overflow="visible"/>
	</clipPath>
	<path clip-path="url(#SVGID_105_)" fill="none" stroke="#939598" stroke-miterlimit="10" d="M547.506,181.057
		c0-0.591-0.486-1.077-1.077-1.077c0.591,0,1.077-0.485,1.077-1.076c0-0.593-0.486-1.076-1.077-1.076h-6.46
		c-0.591,0-1.076,0.483-1.076,1.076c0,0.591,0.485,1.076,1.076,1.076c-0.591,0-1.076,0.486-1.076,1.077
		c0,0.592,0.485,1.078,1.076,1.078c-0.591,0-1.076,0.484-1.076,1.076c0,0.592,0.485,1.076,1.076,1.076h6.46
		c0.591,0,1.077-0.484,1.077-1.076c0-0.592-0.486-1.076-1.077-1.076C547.02,182.135,547.506,181.649,547.506,181.057z"/>
	
		<line clip-path="url(#SVGID_105_)" fill="none" stroke="#939598" stroke-linecap="round" stroke-linejoin="round" stroke-miterlimit="10" x1="541.047" y1="179.98" x2="539.969" y2="179.98"/>
	
		<line clip-path="url(#SVGID_105_)" fill="none" stroke="#939598" stroke-linecap="round" stroke-linejoin="round" stroke-miterlimit="10" x1="546.429" y1="179.98" x2="545.353" y2="179.98"/>
	
		<line clip-path="url(#SVGID_105_)" fill="none" stroke="#939598" stroke-linecap="round" stroke-linejoin="round" stroke-miterlimit="10" x1="541.047" y1="182.135" x2="539.969" y2="182.135"/>
	
		<line clip-path="url(#SVGID_105_)" fill="none" stroke="#939598" stroke-linecap="round" stroke-linejoin="round" stroke-miterlimit="10" x1="546.429" y1="182.135" x2="545.353" y2="182.135"/>
	
		<line clip-path="url(#SVGID_105_)" fill="none" stroke="#939598" stroke-linecap="round" stroke-linejoin="round" stroke-miterlimit="10" x1="533.51" y1="170.292" x2="531.355" y2="170.292"/>
	
		<line clip-path="url(#SVGID_105_)" fill="none" stroke="#939598" stroke-linecap="round" stroke-linejoin="round" stroke-miterlimit="10" x1="555.042" y1="170.292" x2="552.89" y2="170.292"/>
	
		<line clip-path="url(#SVGID_105_)" fill="none" stroke="#939598" stroke-linecap="round" stroke-linejoin="round" stroke-miterlimit="10" x1="535.584" y1="177.904" x2="534.824" y2="178.667"/>
	
		<line clip-path="url(#SVGID_105_)" fill="none" stroke="#939598" stroke-linecap="round" stroke-linejoin="round" stroke-miterlimit="10" x1="551.572" y1="161.916" x2="550.812" y2="162.679"/>
	
		<line clip-path="url(#SVGID_105_)" fill="none" stroke="#939598" stroke-linecap="round" stroke-linejoin="round" stroke-miterlimit="10" x1="543.111" y1="157.844" x2="543.029" y2="158.915"/>
	
		<line clip-path="url(#SVGID_105_)" fill="none" stroke="#939598" stroke-linecap="round" stroke-linejoin="round" stroke-miterlimit="10" x1="535.584" y1="162.678" x2="534.824" y2="161.915"/>
	
		<line clip-path="url(#SVGID_105_)" fill="none" stroke="#939598" stroke-linecap="round" stroke-linejoin="round" stroke-miterlimit="10" x1="551.572" y1="178.667" x2="550.812" y2="177.903"/>
	<path clip-path="url(#SVGID_105_)" fill="#FFFFFF" d="M608.628,297.871h-36.485c-1.682,0-3.044-1.36-3.044-3.042V230.98
		c0-1.681,1.362-3.042,3.044-3.042h36.485c1.679,0,3.038,1.361,3.038,3.042v63.848C611.666,296.511,610.307,297.871,608.628,297.871
		"/>
	
		<path clip-path="url(#SVGID_105_)" fill="none" stroke="#939598" stroke-width="1.5" stroke-linecap="round" stroke-linejoin="round" stroke-miterlimit="10" d="
		M608.628,297.871h-36.485c-1.682,0-3.044-1.36-3.044-3.042V230.98c0-1.681,1.362-3.042,3.044-3.042h36.485
		c1.679,0,3.038,1.361,3.038,3.042v63.848C611.666,296.511,610.307,297.871,608.628,297.871z"/>
	
		<line clip-path="url(#SVGID_105_)" fill="none" stroke="#939598" stroke-width="1.5" stroke-linecap="round" stroke-linejoin="round" stroke-miterlimit="10" x1="569.099" y1="237.061" x2="611.666" y2="237.061"/>
	<path clip-path="url(#SVGID_105_)" fill="#D4D826" d="M593.422,288.749c0,1.68-1.358,3.04-3.037,3.04
		c-1.68,0-3.043-1.36-3.043-3.04c0-1.682,1.363-3.04,3.043-3.04C592.063,285.708,593.422,287.066,593.422,288.749"/>
	
		<path clip-path="url(#SVGID_105_)" fill="none" stroke="#939598" stroke-width="1.5" stroke-linecap="round" stroke-linejoin="round" stroke-miterlimit="10" d="
		M593.422,288.749c0,1.68-1.358,3.04-3.037,3.04c-1.68,0-3.043-1.36-3.043-3.04c0-1.682,1.363-3.04,3.043-3.04
		C592.063,285.708,593.422,287.066,593.422,288.749z"/>
	
		<line clip-path="url(#SVGID_105_)" fill="none" stroke="#939598" stroke-width="1.5" stroke-linecap="round" stroke-linejoin="round" stroke-miterlimit="10" x1="569.099" y1="279.628" x2="611.666" y2="279.628"/>
</g>
<g>
	<defs>
		<rect id="SVGID_106_" x="575.182" y="258.345" width="6.082" height="6.08"/>
	</defs>
	<clipPath id="SVGID_107_">
		<use xlink:href="#SVGID_106_"  overflow="visible"/>
	</clipPath>
	
		<linearGradient id="SVGID_108_" gradientUnits="userSpaceOnUse" x1="4.882812e-04" y1="595.2788" x2="1.0005" y2="595.2788" gradientTransform="matrix(6.082 0 0 -6.082 575.1797 3881.8887)">
		<stop  offset="0" style="stop-color:#C5E1EF"/>
		<stop  offset="1" style="stop-color:#94C2E2"/>
		<a:midPointStop  offset="0" style="stop-color:#C5E1EF"/>
		<a:midPointStop  offset="0.4893" style="stop-color:#C5E1EF"/>
		<a:midPointStop  offset="1" style="stop-color:#94C2E2"/>
	</linearGradient>
	<rect x="575.182" y="258.345" clip-path="url(#SVGID_107_)" fill="url(#SVGID_108_)" width="6.082" height="6.08"/>
</g>
<g>
	<defs>
		<rect id="SVGID_109_" width="841.89" height="595.279"/>
	</defs>
	<clipPath id="SVGID_110_">
		<use xlink:href="#SVGID_109_"  overflow="visible"/>
	</clipPath>
	
		<rect x="575.182" y="258.345" clip-path="url(#SVGID_110_)" fill="none" stroke="#939598" stroke-width="2" stroke-miterlimit="10" width="6.082" height="6.08"/>
</g>
<g>
	<defs>
		<rect id="SVGID_111_" x="587.342" y="252.265" width="6.08" height="12.16"/>
	</defs>
	<clipPath id="SVGID_112_">
		<use xlink:href="#SVGID_111_"  overflow="visible"/>
	</clipPath>
	
		<linearGradient id="SVGID_113_" gradientUnits="userSpaceOnUse" x1="-4.882812e-04" y1="595.2778" x2="0.9995" y2="595.2778" gradientTransform="matrix(6.0801 0 0 -6.0801 587.3438 3877.6868)">
		<stop  offset="0" style="stop-color:#DBE12B"/>
		<stop  offset="0.2898" style="stop-color:#DEE44D"/>
		<stop  offset="0.7656" style="stop-color:#E3E87F"/>
		<stop  offset="1" style="stop-color:#E5EA93"/>
		<a:midPointStop  offset="0" style="stop-color:#DBE12B"/>
		<a:midPointStop  offset="0.453" style="stop-color:#DBE12B"/>
		<a:midPointStop  offset="1" style="stop-color:#E5EA93"/>
	</linearGradient>
	<rect x="587.342" y="252.265" clip-path="url(#SVGID_112_)" fill="url(#SVGID_113_)" width="6.08" height="12.16"/>
</g>
<g>
	<defs>
		<rect id="SVGID_114_" width="841.89" height="595.279"/>
	</defs>
	<clipPath id="SVGID_115_">
		<use xlink:href="#SVGID_114_"  overflow="visible"/>
	</clipPath>
	
		<rect x="587.342" y="252.265" clip-path="url(#SVGID_115_)" fill="none" stroke="#939598" stroke-width="2" stroke-miterlimit="10" width="6.08" height="12.16"/>
</g>
<g>
	<defs>
		<rect id="SVGID_116_" x="599.506" y="246.182" width="6.076" height="18.243"/>
	</defs>
	<clipPath id="SVGID_117_">
		<use xlink:href="#SVGID_116_"  overflow="visible"/>
	</clipPath>
	
		<linearGradient id="SVGID_118_" gradientUnits="userSpaceOnUse" x1="-4.882812e-04" y1="595.2788" x2="0.9995" y2="595.2788" gradientTransform="matrix(6.0762 0 0 -6.0762 599.5078 3872.3186)">
		<stop  offset="0" style="stop-color:#B5D7D9"/>
		<stop  offset="0.264" style="stop-color:#A9CBCD"/>
		<stop  offset="1" style="stop-color:#8CACAE"/>
		<a:midPointStop  offset="0" style="stop-color:#B5D7D9"/>
		<a:midPointStop  offset="0.4699" style="stop-color:#B5D7D9"/>
		<a:midPointStop  offset="1" style="stop-color:#8CACAE"/>
	</linearGradient>
	<rect x="599.506" y="246.182" clip-path="url(#SVGID_117_)" fill="url(#SVGID_118_)" width="6.076" height="18.243"/>
</g>
<g>
	<defs>
		<rect id="SVGID_119_" width="841.89" height="595.279"/>
	</defs>
	<clipPath id="SVGID_120_">
		<use xlink:href="#SVGID_119_"  overflow="visible"/>
	</clipPath>
	
		<rect x="599.506" y="246.182" clip-path="url(#SVGID_120_)" fill="none" stroke="#939598" stroke-width="2" stroke-miterlimit="10" width="6.076" height="18.243"/>
	
		<line clip-path="url(#SVGID_120_)" fill="none" stroke="#939598" stroke-width="1.5" stroke-linecap="round" stroke-linejoin="round" stroke-miterlimit="10" x1="575.182" y1="270.506" x2="605.582" y2="270.506"/>
	
		<path clip-path="url(#SVGID_120_)" fill="none" stroke="#939598" stroke-width="1.25" stroke-miterlimit="10" stroke-dasharray="2,2" d="
		M841.89,445.446H646.73c0,0-29.023,4.996-29.988-9.292c-0.946-14.279,5.74-18.028,34.441-18.028h27.76
		c0,0,25.822-5.266,23.908-24.055c-1.906-18.799-20.089-18.799-28.701-18.799h-91.842"/>
</g>
</svg>
