<?xml version="1.0" encoding="utf-8"?>
<!-- Generator: Adobe Illustrator 16.0.0, SVG Export Plug-In . SVG Version: 6.00 Build 0)  -->
<!DOCTYPE svg PUBLIC "-//W3C//DTD SVG 1.1//EN" "http://www.w3.org/Graphics/SVG/1.1/DTD/svg11.dtd" [
	<!ENTITY ns_extend "http://ns.adobe.com/Extensibility/1.0/">
	<!ENTITY ns_ai "http://ns.adobe.com/AdobeIllustrator/10.0/">
	<!ENTITY ns_graphs "http://ns.adobe.com/Graphs/1.0/">
	<!ENTITY ns_vars "http://ns.adobe.com/Variables/1.0/">
	<!ENTITY ns_imrep "http://ns.adobe.com/ImageReplacement/1.0/">
	<!ENTITY ns_sfw "http://ns.adobe.com/SaveForWeb/1.0/">
	<!ENTITY ns_custom "http://ns.adobe.com/GenericCustomNamespace/1.0/">
	<!ENTITY ns_adobe_xpath "http://ns.adobe.com/XPath/1.0/">
]>
<svg version="1.1" id="Layer_1" xmlns:x="&ns_extend;" xmlns:i="&ns_ai;" xmlns:graph="&ns_graphs;"
	 xmlns="http://www.w3.org/2000/svg" xmlns:xlink="http://www.w3.org/1999/xlink" x="0px" y="0px" width="340.16px"
	 height="113.39px" viewBox="0 0 340.16 113.39" enable-background="new 0 0 340.16 113.39" xml:space="preserve">
<metadata>
	<sfw  xmlns="&ns_sfw;">
		<slices></slices>
		<sliceSourceBounds  height="96.574" width="304.599" x="17.727" y="-104.617" bottomLeftOrigin="true"></sliceSourceBounds>
	</sfw>
</metadata>
<g>
	<path fill="#446AB3" stroke="#FFFFFF" stroke-miterlimit="10" d="M109.241,52.533c-5.953-0.157-11.913-0.112-17.866-0.183
		c-2.24-0.025-3.461,1.288-3.985,3.443c-0.577,2.393-4.715,13.748-6.77,22.933c-1.065,4.771-1.933,8.694-2.187,9.951
		c-0.736,3.669,0.049,8.337-0.589,12.03c0.304,0.118,0.608,0.231,0.911,0.35c0.518-0.892,1.28-1.717,1.513-2.688
		c0.835-3.487,2.069-15.671,4.3-25.652c1.603-7.187,4.37-12.77,4.834-15.31c0.396-2.161,1.273-2.899,3.032-2.884
		c5.601,0.046,11.209,0.331,16.807,0.234V52.533L109.241,52.533z"/>
	<path fill="#446AB3" stroke="#FFFFFF" stroke-miterlimit="10" d="M168.504,18.871c-3.687,1.271-7.414,2.506-10.948,4.192
		c-7.272,3.472-15.133,5.576-22.978,7.161c-4.492,0.907-8.731,1.141-13.185,2.251c-3.894,0.968-7.865,1.127-11.795,1.816
		c-0.237,0.042-0.479,0.073-0.717,0.111l-0.086,2.357c11.606-2.517,23.591-2.973,35.141-5.771c2.532-0.613,5.023-1.569,7.414-2.662
		c4.432-2.019,8.748-4.32,13.178-6.339c0.798-0.365,1.911,0.051,2.879,0.108c-0.341,0.988-0.446,2.209-1.062,2.93
		c-3.179,3.737-7.366,5.364-11.931,6.111c-0.994,0.163-1.949,0.549-3.396,0.969c2.984,2.737,2.704,5.688,2.007,8.808
		c-2.232,9.963-2.845,40.377-1.774,50.551c0.311,2.952-0.34,6.021-0.547,9.035c-0.362,0.054-0.725,0.108-1.085,0.163
		c-0.659-1.146-1.67-2.207-1.916-3.447c-1.099-5.53-1.636-31.468-2.58-37.034c-0.324-1.91-0.54-4.151-2.514-4.715
		c-3.295-0.94-6.691-1.564-10.083-1.995c-2.674-0.339-5.434,0.079-8.098-0.306c-5.08-0.736-10.141-0.973-15.186-0.848v2.464
		c9.235-0.194,18.472,0.344,27.691,1.276c4.764,0.483,6.406,2.711,6.687,7.859c0.205,3.736,0.082,27.925,1.033,31.488
		c0.675,2.544,2.335,4.93,3.988,6.989c1.401,1.742,3.715,0.868,3.94-1.455c0.38-3.896,0.386-7.835,0.5-11.76
		c0.187-6.54,0.516-33.45,0.908-39.975c0.317-5.2,1.121-10.366,1.776-16.152c4.481-1.014,9.158-2.917,12.357-7.346
		c1.067-1.477,1.474-3.557,1.945-5.429C170.146,19.954,168.873,18.743,168.504,18.871z"/>
	<path fill="#446AB3" stroke="#FFFFFF" stroke-miterlimit="10" d="M91.964,31.517c-5.575-1.018-10.934-3.375-16.402-5.076
		c-1.76-0.545-2.65-1.542-2.877-3.636c-0.509-4.628,2.549-17.483-2.815-13.511c-2.596,1.922-12.811,11.874-15.29,13.988
		c-3.738,3.188-7.332,6.649-11.377,9.324c-4.696,3.105-9.875,5.37-14.732,8.214c-4.412,2.584-4.378,4.458-8.626,7.34
		c-0.744,0.504-0.975,1.872-1.44,2.838c0.66,0.285,1.309,0.616,1.988,0.839c0.701,0.229,1.432,0.356,2.153,0.513
		c4.622,1.012,4.841,2.127,9.541,1.01c6.032-1.434,12.149-2.544,18.28-3.386c2.561-0.353,3.056-0.042,4.625,0.232
		c0.283,0.396,1.024,0.566,1.379,0.886c0.933,0.841,1.272,2.201,1.687,3.373c0.432,1.217,0.624,2.4,0.633,3.727
		c0.269,0.081,0.532,0.215,0.768,0.386c0.006-2.951,0.474-5.626-1.047-8.335c-0.544-0.971-2.043-2.098-3.246-2.305
		c0-0.015-1.881-0.027-3.995-0.203c-3.735-0.311-7.294-0.17-10.722,1.78c-0.699,0.4-1.993-0.39-3.136-0.663
		c-5.735,4.287-7.933,1.955-14.828,0.571c0.883-0.846,1.659-1.898,2.668-2.502c5.057-3.033,5.837-5.009,10.928-7.977
		c4.31-2.515,8.811-4.73,12.842-7.676c3.406-2.489,6.195-5.922,9.385-8.769c1.927-1.715,10.308-8.908,11.953-10.888
		c1.458-1.756,0.675,2.261,0.877,3.471c0.374,2.235-1.174,7.438-0.28,9.344c0.938,3.125,2.561,3.218,3.589,4.268
		c4.68,1.597,8.711,3.599,12.931,4.29c7.289,1.196,14.522,2.932,21.863,3.754v-2.337C103.459,33.66,97.709,32.566,91.964,31.517z"/>
	<path fill="#446AB3" stroke="#FFFFFF" stroke-miterlimit="10" d="M46.898,32.466c1.843-2.329,3.523-4.85,5.425-7.129
		c1.669-2,7.973-10.221,9.324-12.437c1.205-1.967,1.978,1.92,2.344,3.084c0.095,0.297,0.156,0.662,0.203,1.066
		c0.606-0.517,1.161-0.982,1.645-1.386c-0.336-4.378-2.008-7.885-4.895-4.992c-2.306,2.309-10.041,13.545-12.203,16.027
		c-3.085,3.542-6.015,7.295-9.4,10.47C41.581,35.874,44.309,34.22,46.898,32.466z"/>
</g>
<g>
	<path fill="#446AB3" stroke="#FFFFFF" stroke-miterlimit="10" d="M190.49,81.997l-7.574-62.245h1.915l6.615,54.487
		c1.103-9.142,2.207-18.236,3.309-27.289c1.101-9.051,2.205-18.115,3.308-27.198h1.826l6.706,54.667
		c1.101-8.899,2.217-18.026,3.35-27.379c1.131-9.351,2.248-18.448,3.352-27.29h1.739l-7.572,62.245h-1.829l-6.701-54.396
		c-1.162,9.021-2.278,18.086-3.353,27.198c-1.073,9.112-2.163,18.178-3.264,27.199L190.49,81.997L190.49,81.997z"/>
	<path fill="#446AB3" stroke="#FFFFFF" stroke-miterlimit="10" d="M237.367,79.923c-1.771,1.384-3.962,2.074-6.572,2.074
		c-2.611,0-4.817-0.69-6.615-2.074c-1.801-1.383-2.699-3.126-2.699-5.233V43.027c0-0.961,0.246-1.894,0.738-2.796
		c0.495-0.902,1.147-1.683,1.961-2.345c0.811-0.66,1.783-1.187,2.914-1.579c1.133-0.389,2.364-0.586,3.701-0.586
		c1.274,0,2.481,0.197,3.612,0.586c1.133,0.391,2.104,0.919,2.917,1.579c0.811,0.663,1.465,1.443,1.958,2.345
		c0.492,0.902,0.739,1.835,0.739,2.796v31.662C240.021,76.797,239.137,78.54,237.367,79.923z M225.527,78.841
		c1.421,1.142,3.176,1.713,5.268,1.713c2.032,0,3.771-0.571,5.224-1.713c1.449-1.143,2.176-2.526,2.176-4.151V43.027
		c0-1.563-0.727-2.932-2.176-4.105c-1.453-1.173-3.191-1.759-5.224-1.759c-2.09,0-3.847,0.586-5.268,1.759
		c-1.424,1.173-2.132,2.542-2.132,4.105v31.662C223.396,76.313,224.105,77.698,225.527,78.841z"/>
	<path fill="#446AB3" stroke="#FFFFFF" stroke-miterlimit="10" d="M248.64,81.997v-5.232h1.827v5.232H248.64z"/>
	<path fill="#446AB3" stroke="#FFFFFF" stroke-miterlimit="10" d="M274.973,79.923c-1.771,1.384-3.962,2.074-6.572,2.074
		c-2.613,0-4.817-0.69-6.615-2.074c-1.801-1.383-2.699-3.126-2.699-5.233V27.061c0-2.044,0.898-3.774,2.699-5.188
		c1.798-1.412,4.002-2.121,6.615-2.121c1.274,0,2.481,0.198,3.612,0.587c1.131,0.391,2.104,0.917,2.917,1.578
		c0.811,0.662,1.465,1.429,1.958,2.299c0.492,0.873,0.739,1.821,0.739,2.842v4.781H275.8v-4.781c0-1.623-0.727-3.007-2.176-4.15
		c-1.453-1.142-3.194-1.714-5.224-1.714c-2.09,0-3.847,0.572-5.268,1.714c-1.424,1.143-2.132,2.524-2.132,4.15v47.629
		c0,1.624,0.71,3.01,2.132,4.15c1.421,1.144,3.176,1.714,5.268,1.714c2.029,0,3.771-0.57,5.224-1.714
		c1.449-1.141,2.176-2.525,2.176-4.15v-4.781h1.827v4.781C277.627,76.797,276.744,78.54,274.973,79.923z"/>
	<path fill="#446AB3" stroke="#FFFFFF" stroke-miterlimit="10" d="M302.219,79.923c-1.77,1.384-3.96,2.074-6.572,2.074
		c-2.611,0-4.817-0.69-6.615-2.074c-1.801-1.383-2.697-3.126-2.697-5.233V43.027c0-0.961,0.244-1.894,0.738-2.796
		c0.493-0.902,1.146-1.683,1.959-2.345c0.812-0.66,1.785-1.187,2.916-1.579c1.131-0.389,2.365-0.586,3.699-0.586
		c1.276,0,2.481,0.197,3.614,0.586c1.131,0.391,2.102,0.919,2.915,1.579c0.812,0.663,1.465,1.443,1.958,2.345
		c0.492,0.902,0.741,1.835,0.741,2.796v31.662C304.875,76.797,303.99,78.54,302.219,79.923z M290.379,78.841
		c1.423,1.142,3.178,1.713,5.268,1.713c2.032,0,3.772-0.571,5.226-1.713c1.449-1.143,2.174-2.526,2.174-4.151V43.027
		c0-1.563-0.725-2.932-2.174-4.105c-1.453-1.173-3.193-1.759-5.226-1.759c-2.088,0-3.845,0.586-5.268,1.759
		c-1.422,1.173-2.132,2.542-2.132,4.105v31.662C288.247,76.313,288.957,77.698,290.379,78.841z"/>
	<path fill="#446AB3" stroke="#FFFFFF" stroke-miterlimit="10" d="M313.491,81.997v-5.232h1.829v5.232H313.491z"/>
</g>
<g>
	<path fill="#446AB3" stroke="#FFFFFF" stroke-miterlimit="10" d="M182.108,102.004l-1.429-11.326h0.36l1.248,9.914
		c0.207-1.663,0.415-3.316,0.623-4.965c0.208-1.646,0.416-3.297,0.624-4.949h0.345l1.265,9.947c0.208-1.619,0.419-3.28,0.632-4.98
		c0.214-1.703,0.425-3.357,0.633-4.967h0.328l-1.429,11.326h-0.346l-1.264-9.896c-0.219,1.641-0.43,3.291-0.632,4.947
		c-0.202,1.658-0.408,3.309-0.615,4.949H182.108z"/>
	<path fill="#446AB3" stroke="#FFFFFF" stroke-miterlimit="10" d="M196.692,101.626c-0.334,0.252-0.747,0.378-1.239,0.378
		s-0.908-0.126-1.248-0.378c-0.339-0.251-0.509-0.568-0.509-0.951v-8.667c0-0.371,0.17-0.687,0.509-0.943
		c0.34-0.258,0.756-0.387,1.248-0.387c0.24,0,0.468,0.036,0.681,0.106c0.215,0.071,0.397,0.167,0.552,0.288
		c0.151,0.119,0.274,0.26,0.368,0.418s0.141,0.331,0.141,0.518v8.667C197.193,101.058,197.026,101.375,196.692,101.626z
		 M194.46,101.43c0.269,0.208,0.601,0.312,0.993,0.312c0.383,0,0.711-0.104,0.984-0.312c0.272-0.208,0.411-0.46,0.411-0.755v-8.667
		c0-0.296-0.139-0.548-0.411-0.756c-0.273-0.207-0.603-0.312-0.984-0.312c-0.394,0-0.726,0.104-0.993,0.312
		c-0.269,0.208-0.401,0.46-0.401,0.756v8.667C194.058,100.97,194.191,101.222,194.46,101.43z"/>
	<path fill="#446AB3" stroke="#FFFFFF" stroke-miterlimit="10" d="M204.579,102.004V90.678h1.593c0.24,0,0.469,0.036,0.682,0.106
		c0.214,0.071,0.398,0.167,0.559,0.288c0.158,0.119,0.284,0.26,0.377,0.418c0.094,0.158,0.141,0.331,0.141,0.518v3.021
		c0,0.263-0.097,0.498-0.287,0.706c-0.191,0.208-0.431,0.372-0.715,0.492c0.284,0.12,0.522,0.284,0.715,0.492
		c0.191,0.208,0.287,0.443,0.287,0.705v4.58h-0.36v-4.58c0-0.295-0.138-0.547-0.411-0.755c-0.273-0.207-0.602-0.312-0.984-0.312
		h-1.23v5.646L204.579,102.004L204.579,102.004z M206.172,96.095c0.383,0,0.711-0.102,0.984-0.304s0.411-0.457,0.411-0.764v-3.02
		c0-0.297-0.138-0.549-0.411-0.757c-0.273-0.207-0.602-0.312-0.984-0.312h-1.23v5.153h1.23V96.095z"/>
	<path fill="#446AB3" stroke="#FFFFFF" stroke-miterlimit="10" d="M218.482,102.004l-2.808-4.892v4.892h-0.36V90.678h0.36v5.335
		l2.808-5.335h0.378l-3.119,5.909c0.515,0.887,1.034,1.789,1.56,2.709c0.525,0.919,1.045,1.821,1.561,2.708H218.482L218.482,102.004
		z"/>
	<path fill="#446AB3" stroke="#FFFFFF" stroke-miterlimit="10" d="M238.385,101.626c-0.334,0.252-0.746,0.378-1.238,0.378
		s-0.908-0.126-1.248-0.378c-0.339-0.251-0.509-0.568-0.509-0.951v-8.667c0-0.371,0.17-0.687,0.509-0.943
		c0.34-0.258,0.756-0.387,1.248-0.387c0.239,0,0.468,0.036,0.681,0.106c0.214,0.071,0.397,0.167,0.551,0.288
		c0.152,0.119,0.275,0.26,0.369,0.418c0.093,0.158,0.14,0.331,0.14,0.518v0.87h-0.345v-0.87c0-0.296-0.138-0.548-0.411-0.756
		c-0.272-0.207-0.602-0.312-0.983-0.312c-0.395,0-0.727,0.104-0.993,0.312c-0.27,0.208-0.402,0.46-0.402,0.756v8.667
		c0,0.295,0.134,0.547,0.402,0.755c0.268,0.208,0.6,0.312,0.993,0.312c0.383,0,0.711-0.104,0.983-0.312
		c0.273-0.208,0.411-0.46,0.411-0.755v-0.87h0.345v0.87C238.886,101.058,238.719,101.375,238.385,101.626z"/>
	<path fill="#446AB3" stroke="#FFFFFF" stroke-miterlimit="10" d="M248.906,101.626c-0.334,0.252-0.747,0.378-1.239,0.378
		s-0.908-0.126-1.248-0.378c-0.339-0.251-0.509-0.568-0.509-0.951v-8.667c0-0.371,0.17-0.687,0.509-0.943
		c0.34-0.258,0.756-0.387,1.248-0.387c0.24,0,0.468,0.036,0.682,0.106c0.214,0.071,0.396,0.167,0.551,0.288
		c0.151,0.119,0.274,0.26,0.369,0.418c0.093,0.158,0.14,0.331,0.14,0.518v8.667C249.407,101.058,249.24,101.375,248.906,101.626z
		 M246.674,101.43c0.269,0.208,0.601,0.312,0.993,0.312c0.383,0,0.711-0.104,0.984-0.312c0.272-0.208,0.411-0.46,0.411-0.755v-8.667
		c0-0.296-0.139-0.548-0.411-0.756c-0.273-0.207-0.603-0.312-0.984-0.312c-0.394,0-0.726,0.104-0.993,0.312
		c-0.269,0.208-0.401,0.46-0.401,0.756v8.667C246.271,100.97,246.405,101.222,246.674,101.43z"/>
	<path fill="#446AB3" stroke="#FFFFFF" stroke-miterlimit="10" d="M256.793,102.037V90.678h0.329l1.953,10.325
		c0.317-1.718,0.646-3.44,0.984-5.171c0.339-1.729,0.668-3.447,0.984-5.154h0.312v11.359h-0.328v-9.488
		c-0.308,1.6-0.607,3.178-0.902,4.736c-0.296,1.559-0.597,3.132-0.902,4.719h-0.296l-1.772-9.471v9.504H256.793z"/>
	<path fill="#446AB3" stroke="#FFFFFF" stroke-miterlimit="10" d="M268.759,102.004V90.678h1.594c0.239,0,0.468,0.036,0.681,0.106
		c0.214,0.071,0.399,0.167,0.559,0.288c0.158,0.119,0.284,0.26,0.377,0.418c0.095,0.158,0.141,0.331,0.141,0.518v3.021
		c0,0.187-0.046,0.358-0.141,0.518c-0.093,0.158-0.219,0.298-0.377,0.418c-0.158,0.121-0.345,0.217-0.559,0.288
		c-0.213,0.071-0.44,0.106-0.681,0.106h-1.231v5.646H268.759L268.759,102.004z M270.352,96.095c0.383,0,0.711-0.102,0.983-0.304
		c0.273-0.202,0.411-0.457,0.411-0.764v-3.02c0-0.297-0.138-0.549-0.411-0.757c-0.272-0.207-0.602-0.312-0.983-0.312h-1.231v5.153
		h1.231V96.095z"/>
	<path fill="#446AB3" stroke="#FFFFFF" stroke-miterlimit="10" d="M279.479,97.375c-0.099,0.755-0.196,1.526-0.295,2.314
		c-0.1,0.788-0.208,1.56-0.328,2.313h-0.378l1.593-11.325h0.345l1.575,11.325h-0.345l-0.641-4.629L279.479,97.375L279.479,97.375z
		 M280.989,97.112c-0.065-0.472-0.129-0.913-0.188-1.329c-0.061-0.416-0.117-0.823-0.173-1.225c-0.055-0.398-0.111-0.81-0.172-1.229
		c-0.061-0.422-0.129-0.873-0.206-1.354c-0.12,0.877-0.236,1.729-0.353,2.562c-0.115,0.832-0.238,1.69-0.369,2.577L280.989,97.112
		L280.989,97.112z"/>
	<path fill="#446AB3" stroke="#FFFFFF" stroke-miterlimit="10" d="M288.9,102.004V90.678h0.329l2.822,10.029V90.678h0.328v11.326
		h-0.312l-2.808-10.013v10.013H288.9z"/>
	<path fill="#446AB3" stroke="#FFFFFF" stroke-miterlimit="10" d="M299.75,102.004V90.661h0.345v11.343H299.75z"/>
	<path fill="#446AB3" stroke="#FFFFFF" stroke-miterlimit="10" d="M310.46,101.626c-0.334,0.252-0.747,0.378-1.239,0.378
		c-0.491,0-0.907-0.126-1.247-0.378c-0.34-0.251-0.51-0.568-0.51-0.951v-8.667c0-0.371,0.17-0.687,0.51-0.943
		c0.34-0.258,0.756-0.387,1.247-0.387c0.24,0,0.469,0.036,0.682,0.106c0.214,0.071,0.396,0.167,0.551,0.288
		c0.152,0.119,0.275,0.26,0.369,0.418c0.093,0.158,0.14,0.331,0.14,0.518v8.667C310.961,101.058,310.794,101.375,310.46,101.626z
		 M308.228,101.43c0.268,0.208,0.6,0.312,0.992,0.312c0.384,0,0.712-0.104,0.984-0.312c0.273-0.208,0.411-0.46,0.411-0.755v-8.667
		c0-0.296-0.138-0.548-0.411-0.756c-0.272-0.207-0.602-0.312-0.984-0.312c-0.394,0-0.726,0.104-0.992,0.312
		c-0.27,0.208-0.402,0.46-0.402,0.756v8.667C307.825,100.97,307.959,101.222,308.228,101.43z"/>
	<path fill="#446AB3" stroke="#FFFFFF" stroke-miterlimit="10" d="M318.346,102.004V90.678h0.329l2.823,10.029V90.678h0.328v11.326
		h-0.312l-2.808-10.013v10.013H318.346z"/>
</g>
</svg>
