<?xml version="1.0" encoding="utf-8"?>
<!-- Generator: Adobe Illustrator 16.0.0, SVG Export Plug-In . SVG Version: 6.00 Build 0)  -->
<!DOCTYPE svg PUBLIC "-//W3C//DTD SVG 1.1//EN" "http://www.w3.org/Graphics/SVG/1.1/DTD/svg11.dtd" [
	<!ENTITY ns_flows "http://ns.adobe.com/Flows/1.0/">
	<!ENTITY ns_extend "http://ns.adobe.com/Extensibility/1.0/">
	<!ENTITY ns_ai "http://ns.adobe.com/AdobeIllustrator/10.0/">
	<!ENTITY ns_graphs "http://ns.adobe.com/Graphs/1.0/">
	<!ENTITY ns_vars "http://ns.adobe.com/Variables/1.0/">
	<!ENTITY ns_imrep "http://ns.adobe.com/ImageReplacement/1.0/">
	<!ENTITY ns_sfw "http://ns.adobe.com/SaveForWeb/1.0/">
	<!ENTITY ns_custom "http://ns.adobe.com/GenericCustomNamespace/1.0/">
	<!ENTITY ns_adobe_xpath "http://ns.adobe.com/XPath/1.0/">
]>
<svg version="1.1" id="Layer_1" xmlns:x="&ns_extend;" xmlns:i="&ns_ai;" xmlns:graph="&ns_graphs;"
	 xmlns="http://www.w3.org/2000/svg" xmlns:xlink="http://www.w3.org/1999/xlink" xmlns:a="http://ns.adobe.com/AdobeSVGViewerExtensions/3.0/"
	 x="0px" y="0px" width="340.16px" height="113.391px" viewBox="0 0 340.16 113.391" enable-background="new 0 0 340.16 113.391"
	 xml:space="preserve">
<metadata>
	<sfw  xmlns="&ns_sfw;">
		<slices></slices>
		<sliceSourceBounds  width="298.092" height="95.769" x="152.148" y="210.384" bottomLeftOrigin="true"></sliceSourceBounds>
	</sfw>
</metadata>
<g>
	<path fill="#FFFFFF" stroke="#FFFFFF" stroke-miterlimit="10" d="M109.241,52.533c-5.953-0.157-11.913-0.112-17.866-0.183
		c-2.24-0.025-3.461,1.288-3.985,3.442c-0.577,2.394-4.715,13.748-6.77,22.934c-1.065,4.771-1.933,8.693-2.187,9.95
		c-0.736,3.67,0.049,8.338-0.589,12.03c0.304,0.118,0.608,0.231,0.911,0.351c0.518-0.893,1.28-1.718,1.513-2.688
		c0.835-3.487,2.069-15.671,4.3-25.652c1.603-7.187,4.37-12.77,4.834-15.31c0.396-2.161,1.273-2.899,3.032-2.884
		c5.601,0.046,11.209,0.331,16.807,0.233V52.533L109.241,52.533z"/>
	<path fill="#FFFFFF" stroke="#FFFFFF" stroke-miterlimit="10" d="M168.504,18.871c-3.687,1.271-7.414,2.506-10.948,4.192
		c-7.272,3.472-15.133,5.576-22.978,7.161c-4.492,0.906-8.731,1.141-13.185,2.251c-3.894,0.968-7.865,1.127-11.795,1.815
		c-0.237,0.042-0.479,0.073-0.717,0.111l-0.086,2.356c11.606-2.517,23.591-2.973,35.141-5.771c2.532-0.613,5.023-1.569,7.414-2.662
		c4.432-2.019,8.748-4.32,13.178-6.339c0.798-0.365,1.911,0.051,2.879,0.107c-0.341,0.988-0.446,2.21-1.062,2.931
		c-3.179,3.737-7.366,5.364-11.931,6.11c-0.994,0.163-1.949,0.55-3.396,0.97c2.984,2.736,2.704,5.688,2.007,8.808
		c-2.232,9.963-2.845,40.377-1.774,50.551c0.311,2.952-0.34,6.021-0.547,9.035c-0.362,0.054-0.725,0.108-1.085,0.163
		c-0.659-1.146-1.67-2.207-1.916-3.447c-1.099-5.529-1.636-31.468-2.58-37.033c-0.324-1.91-0.54-4.151-2.514-4.716
		c-3.295-0.939-6.691-1.563-10.083-1.994c-2.674-0.34-5.434,0.078-8.098-0.307c-5.08-0.735-10.141-0.973-15.186-0.848v2.464
		c9.235-0.194,18.472,0.344,27.691,1.276c4.764,0.482,6.406,2.711,6.687,7.858c0.205,3.736,0.082,27.925,1.033,31.488
		c0.675,2.544,2.335,4.93,3.988,6.989c1.401,1.741,3.715,0.867,3.94-1.455c0.38-3.896,0.386-7.835,0.5-11.761
		c0.187-6.539,0.516-33.449,0.908-39.975c0.317-5.2,1.121-10.366,1.776-16.152c4.481-1.014,9.158-2.917,12.357-7.346
		c1.067-1.477,1.474-3.557,1.945-5.429C170.146,19.954,168.873,18.743,168.504,18.871z"/>
	<path fill="#FFFFFF" stroke="#FFFFFF" stroke-miterlimit="10" d="M91.964,31.517c-5.575-1.019-10.934-3.375-16.402-5.076
		c-1.76-0.545-2.65-1.542-2.877-3.636c-0.509-4.629,2.549-17.483-2.815-13.512c-2.596,1.922-12.811,11.874-15.29,13.988
		c-3.738,3.188-7.332,6.649-11.377,9.324c-4.696,3.104-9.875,5.37-14.732,8.214c-4.412,2.584-4.378,4.458-8.626,7.34
		c-0.744,0.504-0.975,1.872-1.44,2.838c0.66,0.285,1.309,0.616,1.988,0.839c0.701,0.229,1.432,0.356,2.153,0.514
		c4.622,1.012,4.841,2.127,9.541,1.01c6.032-1.435,12.149-2.544,18.28-3.386c2.561-0.354,3.056-0.042,4.625,0.231
		c0.283,0.396,1.024,0.566,1.379,0.886c0.933,0.842,1.272,2.201,1.687,3.373c0.432,1.218,0.624,2.4,0.633,3.728
		c0.269,0.081,0.532,0.215,0.768,0.386c0.006-2.951,0.474-5.626-1.047-8.335c-0.544-0.971-2.043-2.098-3.246-2.305
		c0-0.016-1.881-0.027-3.995-0.203c-3.735-0.312-7.294-0.17-10.722,1.78c-0.699,0.399-1.993-0.391-3.136-0.663
		c-5.735,4.287-7.933,1.955-14.828,0.57c0.883-0.846,1.659-1.897,2.668-2.502c5.057-3.032,5.837-5.009,10.928-7.977
		c4.31-2.515,8.811-4.73,12.842-7.676c3.406-2.489,6.195-5.922,9.385-8.77c1.927-1.715,10.308-8.908,11.953-10.888
		c1.458-1.756,0.675,2.261,0.877,3.471c0.374,2.235-1.174,7.438-0.28,9.344c0.938,3.125,2.561,3.219,3.589,4.269
		c4.68,1.597,8.711,3.599,12.931,4.29c7.289,1.196,14.522,2.932,21.863,3.754v-2.337C103.459,33.66,97.709,32.566,91.964,31.517z"/>
	<path fill="#FFFFFF" stroke="#FFFFFF" stroke-miterlimit="10" d="M46.898,32.466c1.843-2.328,3.523-4.85,5.425-7.129
		c1.669-2,7.973-10.221,9.324-12.437c1.205-1.967,1.978,1.92,2.344,3.084c0.095,0.297,0.156,0.662,0.203,1.065
		c0.606-0.517,1.161-0.981,1.645-1.386c-0.336-4.378-2.008-7.885-4.895-4.992c-2.306,2.31-10.041,13.545-12.203,16.027
		c-3.085,3.542-6.015,7.295-9.4,10.47C41.581,35.874,44.309,34.219,46.898,32.466z"/>
</g>
<g>
	<path fill="#FFFFFF" stroke="#FFFFFF" stroke-miterlimit="10" d="M190.49,90.997l-7.574-62.245h1.915l6.614,54.487
		c1.104-9.142,2.207-18.236,3.31-27.289c1.101-9.051,2.205-18.115,3.308-27.198h1.826l6.707,54.667
		c1.1-8.898,2.217-18.025,3.35-27.379c1.131-9.351,2.248-18.448,3.352-27.29h1.739l-7.572,62.245h-1.829l-6.701-54.396
		c-1.162,9.021-2.277,18.086-3.353,27.197c-1.073,9.112-2.163,18.179-3.265,27.199L190.49,90.997L190.49,90.997z"/>
	<path fill="#FFFFFF" stroke="#FFFFFF" stroke-miterlimit="10" d="M237.367,88.923c-1.771,1.385-3.963,2.074-6.572,2.074
		c-2.611,0-4.816-0.689-6.615-2.074c-1.801-1.383-2.699-3.126-2.699-5.232V52.027c0-0.961,0.246-1.895,0.738-2.796
		c0.495-0.902,1.147-1.684,1.961-2.346c0.812-0.659,1.783-1.187,2.914-1.578c1.133-0.39,2.364-0.586,3.701-0.586
		c1.273,0,2.48,0.196,3.612,0.586c1.133,0.391,2.104,0.919,2.917,1.578c0.811,0.663,1.465,1.443,1.958,2.346
		c0.491,0.901,0.739,1.835,0.739,2.796v31.662C240.021,85.797,239.137,87.54,237.367,88.923z M225.527,87.841
		c1.421,1.143,3.176,1.714,5.268,1.714c2.032,0,3.771-0.571,5.225-1.714c1.448-1.143,2.176-2.525,2.176-4.15V52.027
		c0-1.563-0.728-2.933-2.176-4.105c-1.453-1.173-3.191-1.759-5.225-1.759c-2.09,0-3.847,0.586-5.268,1.759
		c-1.424,1.173-2.133,2.542-2.133,4.105v31.662C223.396,85.313,224.105,86.698,225.527,87.841z"/>
	<path fill="#FFFFFF" stroke="#FFFFFF" stroke-miterlimit="10" d="M248.641,90.997v-5.231h1.826v5.231H248.641z"/>
	<path fill="#FFFFFF" stroke="#FFFFFF" stroke-miterlimit="10" d="M274.973,88.923c-1.771,1.385-3.962,2.074-6.572,2.074
		c-2.612,0-4.816-0.689-6.614-2.074c-1.802-1.383-2.699-3.126-2.699-5.232V36.061c0-2.044,0.897-3.774,2.699-5.188
		c1.798-1.412,4.002-2.121,6.614-2.121c1.274,0,2.481,0.198,3.613,0.587c1.131,0.392,2.104,0.917,2.916,1.578
		c0.812,0.662,1.465,1.43,1.959,2.299c0.491,0.873,0.738,1.821,0.738,2.843v4.78H275.8v-4.78c0-1.623-0.727-3.008-2.176-4.15
		c-1.453-1.142-3.194-1.714-5.224-1.714c-2.09,0-3.848,0.572-5.269,1.714c-1.424,1.143-2.132,2.524-2.132,4.15v47.629
		c0,1.624,0.71,3.01,2.132,4.149c1.421,1.145,3.177,1.714,5.269,1.714c2.029,0,3.771-0.569,5.224-1.714
		c1.449-1.141,2.176-2.524,2.176-4.149v-4.781h1.827v4.781C277.627,85.797,276.744,87.54,274.973,88.923z"/>
	<path fill="#FFFFFF" stroke="#FFFFFF" stroke-miterlimit="10" d="M302.219,88.923c-1.77,1.385-3.96,2.074-6.572,2.074
		c-2.61,0-4.816-0.689-6.614-2.074c-1.802-1.383-2.697-3.126-2.697-5.232V52.027c0-0.961,0.244-1.895,0.738-2.796
		c0.493-0.902,1.146-1.684,1.959-2.346c0.812-0.659,1.784-1.187,2.916-1.578c1.131-0.39,2.364-0.586,3.698-0.586
		c1.276,0,2.481,0.196,3.615,0.586c1.131,0.391,2.102,0.919,2.914,1.578c0.812,0.663,1.465,1.443,1.959,2.346
		c0.491,0.901,0.74,1.835,0.74,2.796v31.662C304.875,85.797,303.99,87.54,302.219,88.923z M290.379,87.841
		c1.423,1.143,3.178,1.714,5.268,1.714c2.033,0,3.772-0.571,5.227-1.714c1.449-1.143,2.174-2.525,2.174-4.15V52.027
		c0-1.563-0.725-2.933-2.174-4.105c-1.453-1.173-3.193-1.759-5.227-1.759c-2.088,0-3.845,0.586-5.268,1.759
		c-1.422,1.173-2.132,2.542-2.132,4.105v31.662C288.247,85.313,288.957,86.698,290.379,87.841z"/>
	<path fill="#FFFFFF" stroke="#FFFFFF" stroke-miterlimit="10" d="M313.491,90.997v-5.231h1.829v5.231H313.491z"/>
</g>
</svg>
