<?xml version="1.0" encoding="utf-8"?>
<!-- Generator: Adobe Illustrator 16.0.4, SVG Export Plug-In . SVG Version: 6.00 Build 0)  -->
<!DOCTYPE svg PUBLIC "-//W3C//DTD SVG 1.1//EN" "http://www.w3.org/Graphics/SVG/1.1/DTD/svg11.dtd">
<svg version="1.1" id="Layer_1" xmlns="http://www.w3.org/2000/svg" xmlns:xlink="http://www.w3.org/1999/xlink" x="0px" y="0px"
	 width="728.5px" height="515.91px" viewBox="0 0 728.5 515.91" enable-background="new 0 0 728.5 515.91" xml:space="preserve">
<g>
	<g>
		<g>
			<path fill="#FFFFFF" d="M255.576,82.557c41.242-1.517,82.443,0.451,123.642,2.24c20.693,0.899,41.381,2.024,61.973,4.318
				c10.543,1.174,21.091,2.672,31.49,4.782c7.86,1.595,15.21,2.779,22.95,0.074c-1.356-0.169-2.712-0.338-4.067-0.507
				c2.821,28.982,5.854,57.956,6.799,87.076c1.021,31.44-0.185,62.991-0.617,94.434c-0.386,28.004-0.864,55.963-1.546,83.959
				c-0.621,25.524-0.177,51.869,8.436,76.195c1.089-0.824,2.179-1.648,3.269-2.473c-46.732,1.938-93.489,3.375-140.257,4.146
				c-46.977,0.774-94.066,1.136-141.008-1.182c0.598,0.316,1.195,0.634,1.793,0.95c-0.942-6.358-4.431-11.902-5.445-18.253
				c-1.237-7.745-1.61-15.731-2.124-23.55c-1.033-15.742-1.273-31.53-1.267-47.303c0.012-28.759,0.75-57.488,0.378-86.249
				c-0.317-24.532-0.448-49.064-0.501-73.598c-0.058-27.128-1.398-54.04,5.03-80.616c2.203-9.109,4.337-18.087,4.488-27.512
				c-1.092,0.678-2.184,1.356-3.275,2.035c9.749-0.636,19.619-1.358,29.209,0.95c1.957,0.471,6.854-2.479,3.513-3.283
				c-10.497-2.526-21.311-1.756-31.98-1.06c-0.907,0.06-3.256,0.801-3.275,2.035c-0.231,14.501-5.179,28.213-7.599,42.394
				c-2.377,13.931-2.009,28.015-1.971,42.088c0.064,23.643,0.075,47.286,0.271,70.929c0.232,27.998,0.582,55.957,0.174,83.956
				c-0.435,29.855-0.669,59.771,1.996,89.541c0.466,5.212,0.743,10.574,2.237,15.608c1.357,4.576,3.638,8.663,4.346,13.442
				c0.109,0.738,1.232,0.922,1.793,0.95c46.944,2.316,94.029,1.938,141.008,1.182c47.257-0.762,94.503-2.248,141.725-4.206
				c0.934-0.038,3.777-1.036,3.269-2.473c-8.717-24.625-9.008-51.207-8.38-77.026c0.683-28.088,1.145-56.14,1.531-84.235
				c0.419-30.45,1.427-60.957,0.634-91.406c-0.775-29.76-3.974-59.388-6.856-88.997c-0.155-1.6-3.308-0.773-4.067-0.507
				c-5.015,1.753-10.368,0.567-15.4-0.441c-4.859-0.974-9.726-1.855-14.62-2.636c-9.153-1.46-18.364-2.555-27.586-3.481
				c-19.968-2.007-40.034-2.896-60.077-3.751c-39.267-1.674-78.517-3.435-117.822-1.99C255.543,79.186,251.671,82.7,255.576,82.557z
				"/>
		</g>
	</g>
	<g>
		<path fill="#FFFFFF" d="M305.239,351.127l-7.206-57.156h1.822l6.295,50.032c1.049-8.394,2.099-16.745,3.148-25.058
			c1.048-8.311,2.098-16.635,3.147-24.975h1.739l6.379,50.198c1.048-8.172,2.111-16.553,3.188-25.141
			c1.077-8.586,2.14-16.939,3.189-25.058h1.656l-7.206,57.156h-1.74l-6.378-49.949c-1.105,8.283-2.168,16.608-3.189,24.975
			c-1.022,8.366-2.058,16.691-3.105,24.975H305.239z"/>
		<path fill="#FFFFFF" d="M349.845,349.222c-1.685,1.271-3.769,1.905-6.254,1.905s-4.584-0.634-6.295-1.905
			c-1.713-1.27-2.568-2.871-2.568-4.805v-29.074c0-0.883,0.234-1.74,0.704-2.568c0.469-0.828,1.09-1.545,1.864-2.153
			c0.772-0.607,1.698-1.09,2.774-1.45c1.077-0.358,2.25-0.538,3.521-0.538c1.214,0,2.361,0.18,3.438,0.538
			c1.077,0.36,2.001,0.843,2.775,1.45c0.772,0.608,1.394,1.325,1.863,2.153c0.469,0.828,0.704,1.686,0.704,2.568v29.074
			C352.371,346.351,351.529,347.952,349.845,349.222z M338.579,348.228c1.353,1.05,3.023,1.574,5.012,1.574
			c1.933,0,3.589-0.524,4.971-1.574c1.379-1.048,2.07-2.319,2.07-3.811v-29.074c0-1.436-0.691-2.692-2.07-3.77
			c-1.382-1.077-3.038-1.615-4.971-1.615c-1.988,0-3.659,0.538-5.012,1.615c-1.354,1.077-2.029,2.334-2.029,3.77v29.074
			C336.55,345.908,337.226,347.18,338.579,348.228z"/>
		<path fill="#FFFFFF" d="M360.571,351.127v-4.805h1.74v4.805H360.571z"/>
		<path fill="#FFFFFF" d="M385.628,349.222c-1.685,1.271-3.769,1.905-6.254,1.905s-4.584-0.634-6.295-1.905
			c-1.713-1.27-2.568-2.871-2.568-4.805v-43.736c0-1.877,0.855-3.465,2.568-4.763c1.711-1.297,3.81-1.947,6.295-1.947
			c1.214,0,2.361,0.181,3.438,0.539c1.077,0.359,2.001,0.842,2.775,1.449c0.772,0.608,1.394,1.312,1.863,2.112
			c0.469,0.801,0.704,1.671,0.704,2.609v4.391h-1.739v-4.391c0-1.491-0.691-2.761-2.07-3.811c-1.382-1.048-3.038-1.574-4.971-1.574
			c-1.988,0-3.659,0.526-5.012,1.574c-1.354,1.05-2.029,2.319-2.029,3.811v43.736c0,1.491,0.676,2.763,2.029,3.811
			c1.353,1.05,3.023,1.574,5.012,1.574c1.933,0,3.589-0.524,4.971-1.574c1.379-1.048,2.07-2.319,2.07-3.811v-4.39h1.739v4.39
			C388.154,346.351,387.312,347.952,385.628,349.222z"/>
		<path fill="#FFFFFF" d="M411.555,349.222c-1.685,1.271-3.769,1.905-6.254,1.905s-4.584-0.634-6.295-1.905
			c-1.713-1.27-2.568-2.871-2.568-4.805v-29.074c0-0.883,0.234-1.74,0.704-2.568c0.469-0.828,1.09-1.545,1.864-2.153
			c0.772-0.607,1.698-1.09,2.774-1.45c1.077-0.358,2.25-0.538,3.521-0.538c1.214,0,2.361,0.18,3.438,0.538
			c1.077,0.36,2.001,0.843,2.775,1.45c0.772,0.608,1.394,1.325,1.863,2.153c0.469,0.828,0.704,1.686,0.704,2.568v29.074
			C414.081,346.351,413.239,347.952,411.555,349.222z M400.289,348.228c1.353,1.05,3.023,1.574,5.012,1.574
			c1.933,0,3.589-0.524,4.971-1.574c1.379-1.048,2.07-2.319,2.07-3.811v-29.074c0-1.436-0.691-2.692-2.07-3.77
			c-1.382-1.077-3.038-1.615-4.971-1.615c-1.988,0-3.659,0.538-5.012,1.615c-1.354,1.077-2.029,2.334-2.029,3.77v29.074
			C398.26,345.908,398.936,347.18,400.289,348.228z"/>
		<path fill="#FFFFFF" d="M422.281,351.127v-4.805h1.74v4.805H422.281z"/>
	</g>
	<g>
		<path fill="#FFFFFF" d="M283.158,377.299l-1.429-11.326h0.361l1.248,9.914c0.207-1.663,0.415-3.317,0.623-4.965
			c0.208-1.646,0.416-3.297,0.624-4.949h0.345l1.264,9.947c0.208-1.619,0.419-3.28,0.632-4.981c0.214-1.702,0.425-3.357,0.633-4.966
			h0.328l-1.429,11.326h-0.345l-1.264-9.897c-0.219,1.641-0.43,3.291-0.632,4.948c-0.202,1.658-0.408,3.308-0.615,4.949H283.158z"/>
		<path fill="#FFFFFF" d="M297.742,376.921c-0.334,0.252-0.747,0.378-1.239,0.378s-0.908-0.126-1.248-0.378
			c-0.339-0.251-0.509-0.568-0.509-0.951v-8.667c0-0.372,0.17-0.687,0.509-0.944c0.34-0.257,0.756-0.386,1.248-0.386
			c0.24,0,0.468,0.036,0.681,0.106c0.214,0.071,0.397,0.167,0.551,0.288c0.152,0.12,0.275,0.26,0.369,0.418
			c0.093,0.159,0.14,0.331,0.14,0.518v8.667C298.243,376.353,298.076,376.67,297.742,376.921z M295.51,376.725
			c0.268,0.208,0.6,0.312,0.993,0.312c0.383,0,0.711-0.104,0.984-0.312s0.411-0.46,0.411-0.755v-8.667
			c0-0.296-0.138-0.548-0.411-0.756c-0.273-0.207-0.602-0.312-0.984-0.312c-0.394,0-0.726,0.104-0.993,0.312
			c-0.269,0.208-0.402,0.46-0.402,0.756v8.667C295.107,376.265,295.241,376.517,295.51,376.725z"/>
		<path fill="#FFFFFF" d="M305.629,377.299v-11.326h1.593c0.24,0,0.468,0.036,0.681,0.106c0.214,0.071,0.399,0.167,0.559,0.288
			c0.158,0.12,0.284,0.26,0.377,0.418c0.094,0.159,0.14,0.331,0.14,0.518v3.02c0,0.263-0.096,0.498-0.287,0.706
			s-0.43,0.372-0.714,0.492c0.284,0.121,0.522,0.285,0.714,0.493s0.287,0.443,0.287,0.705v4.58h-0.36v-4.58
			c0-0.295-0.138-0.547-0.411-0.755c-0.273-0.207-0.602-0.312-0.984-0.312h-1.231v5.646H305.629z M307.222,371.39
			c0.383,0,0.711-0.102,0.984-0.304s0.411-0.457,0.411-0.764v-3.02c0-0.296-0.138-0.548-0.411-0.756
			c-0.273-0.207-0.602-0.312-0.984-0.312h-1.231v5.154H307.222z"/>
		<path fill="#FFFFFF" d="M319.532,377.299l-2.807-4.892v4.892h-0.361v-11.326h0.361v5.335l2.807-5.335h0.378l-3.119,5.909
			c0.515,0.887,1.034,1.789,1.56,2.709c0.525,0.919,1.045,1.821,1.56,2.708H319.532z"/>
		<path fill="#FFFFFF" d="M339.435,376.921c-0.334,0.252-0.747,0.378-1.239,0.378s-0.908-0.126-1.248-0.378
			c-0.339-0.251-0.509-0.568-0.509-0.951v-8.667c0-0.372,0.17-0.687,0.509-0.944c0.34-0.257,0.756-0.386,1.248-0.386
			c0.24,0,0.468,0.036,0.681,0.106c0.214,0.071,0.397,0.167,0.551,0.288c0.152,0.12,0.275,0.26,0.369,0.418
			c0.093,0.159,0.14,0.331,0.14,0.518v0.87h-0.345v-0.87c0-0.296-0.138-0.548-0.411-0.756c-0.273-0.207-0.602-0.312-0.984-0.312
			c-0.394,0-0.726,0.104-0.993,0.312c-0.269,0.208-0.402,0.46-0.402,0.756v8.667c0,0.295,0.134,0.547,0.402,0.755
			c0.268,0.208,0.6,0.312,0.993,0.312c0.383,0,0.711-0.104,0.984-0.312s0.411-0.46,0.411-0.755v-0.87h0.345v0.87
			C339.936,376.353,339.769,376.67,339.435,376.921z"/>
		<path fill="#FFFFFF" d="M349.956,376.921c-0.334,0.252-0.747,0.378-1.239,0.378s-0.908-0.126-1.248-0.378
			c-0.339-0.251-0.509-0.568-0.509-0.951v-8.667c0-0.372,0.17-0.687,0.509-0.944c0.34-0.257,0.756-0.386,1.248-0.386
			c0.24,0,0.468,0.036,0.681,0.106c0.214,0.071,0.397,0.167,0.551,0.288c0.152,0.12,0.275,0.26,0.369,0.418
			c0.093,0.159,0.14,0.331,0.14,0.518v8.667C350.457,376.353,350.29,376.67,349.956,376.921z M347.724,376.725
			c0.268,0.208,0.6,0.312,0.993,0.312c0.383,0,0.711-0.104,0.984-0.312s0.411-0.46,0.411-0.755v-8.667
			c0-0.296-0.138-0.548-0.411-0.756c-0.273-0.207-0.602-0.312-0.984-0.312c-0.394,0-0.726,0.104-0.993,0.312
			c-0.269,0.208-0.402,0.46-0.402,0.756v8.667C347.321,376.265,347.455,376.517,347.724,376.725z"/>
		<path fill="#FFFFFF" d="M357.843,377.332v-11.359h0.329l1.953,10.325c0.317-1.718,0.646-3.441,0.984-5.171
			c0.339-1.729,0.668-3.447,0.985-5.154h0.312v11.359h-0.328v-9.488c-0.307,1.599-0.607,3.177-0.902,4.736
			c-0.296,1.559-0.597,3.132-0.903,4.719h-0.295l-1.773-9.471v9.504H357.843z"/>
		<path fill="#FFFFFF" d="M369.809,377.299v-11.326h1.593c0.24,0,0.468,0.036,0.681,0.106c0.214,0.071,0.399,0.167,0.559,0.288
			c0.158,0.12,0.284,0.26,0.377,0.418c0.094,0.159,0.14,0.331,0.14,0.518v3.02c0,0.187-0.046,0.359-0.14,0.518
			c-0.093,0.158-0.219,0.298-0.377,0.418c-0.159,0.121-0.345,0.217-0.559,0.288c-0.213,0.071-0.44,0.106-0.681,0.106h-1.231v5.646
			H369.809z M371.401,371.39c0.383,0,0.711-0.102,0.984-0.304s0.411-0.457,0.411-0.764v-3.02c0-0.296-0.138-0.548-0.411-0.756
			c-0.273-0.207-0.602-0.312-0.984-0.312h-1.231v5.154H371.401z"/>
		<path fill="#FFFFFF" d="M380.528,372.67c-0.098,0.755-0.196,1.526-0.295,2.314s-0.208,1.56-0.328,2.314h-0.378l1.593-11.326h0.345
			l1.575,11.326h-0.345l-0.64-4.629H380.528z M382.039,372.407c-0.065-0.471-0.129-0.913-0.188-1.329
			c-0.061-0.416-0.118-0.823-0.173-1.224c-0.055-0.399-0.112-0.81-0.172-1.23c-0.061-0.422-0.129-0.873-0.206-1.354
			c-0.12,0.876-0.237,1.729-0.353,2.561c-0.115,0.832-0.238,1.69-0.369,2.577H382.039z"/>
		<path fill="#FFFFFF" d="M389.95,377.299v-11.326h0.329l2.823,10.029v-10.029h0.328v11.326h-0.312l-2.807-10.013v10.013H389.95z"/>
		<path fill="#FFFFFF" d="M400.8,377.299v-11.343h0.345v11.343H400.8z"/>
		<path fill="#FFFFFF" d="M411.51,376.921c-0.334,0.252-0.747,0.378-1.239,0.378s-0.908-0.126-1.248-0.378
			c-0.339-0.251-0.509-0.568-0.509-0.951v-8.667c0-0.372,0.17-0.687,0.509-0.944c0.34-0.257,0.756-0.386,1.248-0.386
			c0.24,0,0.468,0.036,0.681,0.106c0.214,0.071,0.397,0.167,0.551,0.288c0.152,0.12,0.275,0.26,0.369,0.418
			c0.093,0.159,0.14,0.331,0.14,0.518v8.667C412.011,376.353,411.844,376.67,411.51,376.921z M409.277,376.725
			c0.268,0.208,0.6,0.312,0.993,0.312c0.383,0,0.711-0.104,0.984-0.312s0.411-0.46,0.411-0.755v-8.667
			c0-0.296-0.138-0.548-0.411-0.756c-0.273-0.207-0.602-0.312-0.984-0.312c-0.394,0-0.726,0.104-0.993,0.312
			c-0.269,0.208-0.402,0.46-0.402,0.756v8.667C408.875,376.265,409.009,376.517,409.277,376.725z"/>
		<path fill="#FFFFFF" d="M419.396,377.299v-11.326h0.329l2.823,10.029v-10.029h0.328v11.326h-0.312l-2.807-10.013v10.013H419.396z"
			/>
	</g>
	<g>
		<path fill-rule="evenodd" clip-rule="evenodd" fill="#FFFFFF" stroke="#FFFFFF" stroke-miterlimit="10" d="M359.785,208.59
			c-5.84-0.145-11.686-0.104-17.527-0.168c-2.196-0.024-3.396,1.182-3.909,3.162c-0.567,2.196-4.626,12.625-6.642,21.058
			c-1.045,4.381-1.896,7.985-2.144,9.138c-0.724,3.37,0.046,7.656-0.58,11.048c0.298,0.108,0.597,0.212,0.894,0.321
			c0.508-0.82,1.256-1.577,1.485-2.468c0.819-3.203,2.029-14.391,4.218-23.556c1.572-6.6,4.287-11.727,4.742-14.059
			c0.389-1.984,1.249-2.663,2.974-2.649c5.496,0.043,10.998,0.304,16.489,0.215V208.59z"/>
		<path fill-rule="evenodd" clip-rule="evenodd" fill="#FFFFFF" stroke="#FFFFFF" stroke-miterlimit="10" d="M417.926,177.678
			c-3.618,1.167-7.274,2.301-10.74,3.849c-7.135,3.188-14.846,5.12-22.543,6.576c-4.407,0.833-8.566,1.048-12.935,2.067
			c-3.819,0.889-7.716,1.035-11.571,1.668c-0.233,0.039-0.47,0.067-0.703,0.102l-0.084,2.164c11.385-2.311,23.143-2.73,34.474-5.3
			c2.484-0.563,4.927-1.441,7.274-2.444c4.346-1.854,8.581-3.967,12.927-5.821c0.784-0.335,1.875,0.047,2.824,0.099
			c-0.334,0.908-0.437,2.029-1.041,2.691c-3.12,3.432-7.226,4.926-11.704,5.612c-0.974,0.15-1.914,0.504-3.333,0.89
			c2.928,2.514,2.653,5.223,1.968,8.089c-2.188,9.149-2.791,37.077-1.74,46.42c0.305,2.71-0.333,5.528-0.537,8.296
			c-0.356,0.05-0.711,0.1-1.065,0.151c-0.646-1.052-1.638-2.028-1.878-3.166c-1.078-5.079-1.605-28.897-2.532-34.008
			c-0.317-1.754-0.529-3.813-2.466-4.331c-3.232-0.862-6.564-1.436-9.89-1.831c-2.624-0.312-5.332,0.072-7.945-0.281
			c-4.984-0.677-9.95-0.894-14.899-0.779v2.263c9.062-0.178,18.122,0.316,27.166,1.172c4.674,0.443,6.285,2.489,6.562,7.216
			c0.2,3.432,0.079,25.644,1.011,28.917c0.663,2.336,2.291,4.526,3.913,6.418c1.374,1.599,3.644,0.797,3.865-1.336
			c0.373-3.578,0.38-7.196,0.491-10.799c0.185-6.006,0.505-30.717,0.891-36.709c0.31-4.775,1.099-9.52,1.742-14.833
			c4.395-0.931,8.983-2.678,12.122-6.746c1.049-1.356,1.446-3.266,1.909-4.985C419.537,178.672,418.287,177.56,417.926,177.678z"/>
		<path fill-rule="evenodd" clip-rule="evenodd" fill="#FFFFFF" stroke="#FFFFFF" stroke-miterlimit="10" d="M342.836,189.29
			c-5.469-0.935-10.726-3.099-16.091-4.661c-1.726-0.501-2.599-1.416-2.822-3.339c-0.499-4.25,2.501-16.054-2.762-12.407
			c-2.547,1.765-12.567,10.903-15,12.845c-3.666,2.927-7.192,6.106-11.161,8.562c-4.607,2.852-9.687,4.931-14.453,7.544
			c-4.328,2.372-4.295,4.094-8.463,6.739c-0.729,0.463-0.956,1.719-1.413,2.607c0.647,0.262,1.284,0.566,1.95,0.77
			c0.688,0.211,1.405,0.328,2.112,0.472c4.535,0.929,4.749,1.953,9.361,0.927c5.917-1.317,11.919-2.336,17.933-3.11
			c2.512-0.323,2.998-0.039,4.537,0.213c0.278,0.365,1.005,0.52,1.354,0.814c0.915,0.772,1.248,2.021,1.654,3.097
			c0.424,1.118,0.613,2.204,0.622,3.422c0.263,0.075,0.522,0.197,0.753,0.354c0.006-2.71,0.465-5.166-1.027-7.654
			c-0.534-0.892-2.004-1.927-3.185-2.116c0-0.014-1.845-0.025-3.919-0.187c-3.664-0.285-7.155-0.156-10.518,1.635
			c-0.686,0.367-1.955-0.359-3.076-0.609c-5.626,3.937-7.783,1.795-14.546,0.525c0.865-0.776,1.626-1.743,2.616-2.298
			c4.961-2.785,5.727-4.6,10.721-7.325c4.227-2.309,8.643-4.344,12.598-7.049c3.342-2.285,6.077-5.438,9.207-8.052
			c1.891-1.575,10.113-8.181,11.727-9.998c1.431-1.613,0.662,2.076,0.86,3.187c0.367,2.053-1.151,6.831-0.274,8.581
			c0.92,2.869,2.512,2.955,3.521,3.919c4.591,1.467,8.546,3.305,12.686,3.94c7.15,1.098,14.247,2.692,21.448,3.447v-2.146
			C354.113,191.258,348.473,190.254,342.836,189.29z"/>
		<path fill-rule="evenodd" clip-rule="evenodd" fill="#FFFFFF" stroke="#FFFFFF" stroke-miterlimit="10" d="M298.625,190.162
			c1.809-2.139,3.457-4.454,5.322-6.547c1.638-1.837,7.822-9.386,9.149-11.42c1.18-1.807,1.939,1.763,2.299,2.832
			c0.092,0.273,0.153,0.608,0.199,0.979c0.594-0.475,1.138-0.902,1.613-1.273c-0.33-4.02-1.97-7.241-4.802-4.584
			c-2.261,2.12-9.85,12.438-11.971,14.717c-3.027,3.252-5.902,6.699-9.222,9.615C293.408,193.291,296.085,191.772,298.625,190.162z"
			/>
	</g>
</g>
</svg>
